Interstate_Mono-Black.ufo
<glyph name="exclam" format="1">
  <advance width="600"/>
  <unicode hex="0021"/>
  <outline>
    <contour>
      <point x="238" y="245" type="line"/>
      <point x="204" y="489" type="line"/>
      <point x="204" y="700" type="line"/>
      <point x="396" y="700" type="line"/>
      <point x="396" y="489" type="line"/>
      <point x="362" y="245" type="line"/>
    </contour>
    <contour>
      <point x="300" y="-11" type="curve" smooth="yes"/>
      <point x="242" y="-11"/>
      <point x="200" y="32"/>
      <point x="200" y="89" type="curve" smooth="yes"/>
      <point x="200" y="145"/>
      <point x="242" y="186"/>
      <point x="300" y="186" type="curve" smooth="yes"/>
      <point x="358" y="186"/>
      <point x="399" y="145"/>
      <point x="399" y="89" type="curve" smooth="yes"/>
      <point x="399" y="32"/>
      <point x="358" y="-11"/>
    </contour>
  </outline>
</glyph>
<glyph name="quotedbl" format="1">
  <advance width="600"/>
  <unicode hex="0022"/>
  <outline>
    <contour>
      <point x="365" y="363" type="line"/>
      <point x="331" y="700" type="line"/>
      <point x="535" y="700" type="line"/>
      <point x="501" y="363" type="line"/>
    </contour>
    <contour>
      <point x="99" y="363" type="line"/>
      <point x="65" y="700" type="line"/>
      <point x="269" y="700" type="line"/>
      <point x="235" y="363" type="line"/>
    </contour>
  </outline>
</glyph>
<glyph name="numbersign" format="1">
  <advance width="600"/>
  <unicode hex="0023"/>
  <outline>
    <contour>
      <point x="117" y="0" type="line"/>
      <point x="117" y="140" type="line"/>
      <point x="44" y="140" type="line"/>
      <point x="44" y="272" type="line"/>
      <point x="117" y="272" type="line"/>
      <point x="117" y="428" type="line"/>
      <point x="44" y="428" type="line"/>
      <point x="44" y="560" type="line"/>
      <point x="117" y="560" type="line"/>
      <point x="117" y="700" type="line"/>
      <point x="257" y="700" type="line"/>
      <point x="257" y="560" type="line"/>
      <point x="343" y="560" type="line"/>
      <point x="343" y="700" type="line"/>
      <point x="483" y="700" type="line"/>
      <point x="483" y="560" type="line"/>
      <point x="556" y="560" type="line"/>
      <point x="556" y="428" type="line"/>
      <point x="483" y="428" type="line"/>
      <point x="483" y="272" type="line"/>
      <point x="556" y="272" type="line"/>
      <point x="556" y="140" type="line"/>
      <point x="483" y="140" type="line"/>
      <point x="483" y="0" type="line"/>
      <point x="343" y="0" type="line"/>
      <point x="343" y="140" type="line"/>
      <point x="257" y="140" type="line"/>
      <point x="257" y="0" type="line"/>
    </contour>
    <contour>
      <point x="252" y="268" type="line"/>
      <point x="348" y="268" type="line"/>
      <point x="348" y="432" type="line"/>
      <point x="252" y="432" type="line"/>
    </contour>
  </outline>
</glyph>
<glyph name="dollar" format="1">
  <advance width="600"/>
  <unicode hex="0024"/>
  <outline>
    <contour>
      <point x="214" y="696" type="curve"/>
      <point x="214" y="790" type="line"/>
      <point x="386" y="790" type="line"/>
      <point x="386" y="698" type="line"/>
      <point x="451" y="685"/>
      <point x="498" y="656"/>
      <point x="540" y="612" type="curve"/>
      <point x="435" y="490" type="line"/>
      <point x="381" y="546"/>
      <point x="345" y="563"/>
      <point x="291" y="563" type="curve" smooth="yes"/>
      <point x="249" y="563"/>
      <point x="232" y="544"/>
      <point x="232" y="513" type="curve" smooth="yes"/>
      <point x="232" y="481"/>
      <point x="253" y="466"/>
      <point x="330" y="437" type="curve" smooth="yes"/>
      <point x="484" y="379"/>
      <point x="548" y="325"/>
      <point x="548" y="203" type="curve" smooth="yes"/>
      <point x="548" y="92"/>
      <point x="483" y="28"/>
      <point x="386" y="5" type="curve"/>
      <point x="386" y="-90" type="line"/>
      <point x="214" y="-90" type="line"/>
      <point x="214" y="3" type="line"/>
      <point x="144" y="16"/>
      <point x="89" y="49"/>
      <point x="42" y="97" type="curve"/>
      <point x="145" y="217" type="line"/>
      <point x="200" y="163"/>
      <point x="248" y="137"/>
      <point x="300" y="137" type="curve" smooth="yes"/>
      <point x="349" y="137"/>
      <point x="372" y="152"/>
      <point x="372" y="191" type="curve" smooth="yes"/>
      <point x="372" y="225"/>
      <point x="357" y="242"/>
      <point x="271" y="273" type="curve" smooth="yes"/>
      <point x="120" y="328"/>
      <point x="58" y="379"/>
      <point x="58" y="500" type="curve" smooth="yes"/>
      <point x="58" y="596"/>
      <point x="116" y="670"/>
    </contour>
  </outline>
</glyph>
<glyph name="percent" format="1">
  <advance width="600"/>
  <unicode hex="0025"/>
  <outline>
    <contour>
      <point x="132" y="275" type="curve" smooth="yes"/>
      <point x="43" y="275"/>
      <point x="12" y="367"/>
      <point x="12" y="492" type="curve" smooth="yes"/>
      <point x="12" y="617"/>
      <point x="45" y="711"/>
      <point x="134" y="711" type="curve" smooth="yes"/>
      <point x="223" y="711"/>
      <point x="257" y="619"/>
      <point x="257" y="494" type="curve" smooth="yes"/>
      <point x="257" y="369"/>
      <point x="221" y="275"/>
    </contour>
    <contour>
      <point x="136" y="0" type="line"/>
      <point x="385" y="700" type="line"/>
      <point x="464" y="700" type="line"/>
      <point x="215" y="0" type="line"/>
    </contour>
    <contour>
      <point x="462" y="-11" type="curve" smooth="yes"/>
      <point x="373" y="-11"/>
      <point x="342" y="81"/>
      <point x="342" y="206" type="curve" smooth="yes"/>
      <point x="342" y="331"/>
      <point x="375" y="425"/>
      <point x="464" y="425" type="curve" smooth="yes"/>
      <point x="553" y="425"/>
      <point x="587" y="333"/>
      <point x="587" y="208" type="curve" smooth="yes"/>
      <point x="587" y="83"/>
      <point x="551" y="-11"/>
    </contour>
    <contour>
      <point x="134" y="363" type="curve" smooth="yes"/>
      <point x="152" y="363"/>
      <point x="156" y="374"/>
      <point x="156" y="492" type="curve" smooth="yes"/>
      <point x="156" y="609"/>
      <point x="148" y="623"/>
      <point x="133" y="623" type="curve" smooth="yes"/>
      <point x="118" y="623"/>
      <point x="112" y="612"/>
      <point x="112" y="494" type="curve" smooth="yes"/>
      <point x="112" y="377"/>
      <point x="120" y="363"/>
    </contour>
    <contour>
      <point x="464" y="77" type="curve" smooth="yes"/>
      <point x="482" y="77"/>
      <point x="486" y="88"/>
      <point x="486" y="206" type="curve" smooth="yes"/>
      <point x="486" y="323"/>
      <point x="478" y="337"/>
      <point x="463" y="337" type="curve" smooth="yes"/>
      <point x="448" y="337"/>
      <point x="442" y="326"/>
      <point x="442" y="208" type="curve" smooth="yes"/>
      <point x="442" y="91"/>
      <point x="450" y="77"/>
    </contour>
  </outline>
</glyph>
<glyph name="ampersand" format="1">
  <advance width="600"/>
  <unicode hex="0026"/>
  <outline>
    <contour>
      <point x="215" y="-11" type="curve" smooth="yes"/>
      <point x="96" y="-11"/>
      <point x="31" y="53"/>
      <point x="31" y="175" type="curve" smooth="yes"/>
      <point x="31" y="257"/>
      <point x="81" y="329"/>
      <point x="152" y="389" type="curve"/>
      <point x="136" y="414" type="line" smooth="yes"/>
      <point x="109" y="456"/>
      <point x="87" y="497"/>
      <point x="87" y="547" type="curve" smooth="yes"/>
      <point x="87" y="655"/>
      <point x="171" y="711"/>
      <point x="287" y="711" type="curve" smooth="yes"/>
      <point x="382" y="711"/>
      <point x="430" y="682"/>
      <point x="485" y="631" type="curve"/>
      <point x="395" y="512" type="line"/>
      <point x="342" y="560"/>
      <point x="320" y="570"/>
      <point x="284" y="570" type="curve" smooth="yes"/>
      <point x="261" y="570"/>
      <point x="249" y="554"/>
      <point x="249" y="539" type="curve" smooth="yes"/>
      <point x="249" y="518"/>
      <point x="255" y="500"/>
      <point x="270" y="478" type="curve" smooth="yes"/>
      <point x="382" y="312" type="line"/>
      <point x="396" y="341"/>
      <point x="409" y="370"/>
      <point x="424" y="410" type="curve"/>
      <point x="553" y="356" type="line"/>
      <point x="523" y="286"/>
      <point x="496" y="228"/>
      <point x="469" y="181" type="curve"/>
      <point x="591" y="0" type="line"/>
      <point x="412" y="0" type="line"/>
      <point x="377" y="52" type="line"/>
      <point x="329" y="5"/>
      <point x="279" y="-11"/>
    </contour>
    <contour>
      <point x="242" y="125" type="curve" smooth="yes"/>
      <point x="263" y="125"/>
      <point x="281" y="134"/>
      <point x="302" y="163" type="curve"/>
      <point x="227" y="275" type="line"/>
      <point x="200" y="249"/>
      <point x="187" y="224"/>
      <point x="187" y="192" type="curve" smooth="yes"/>
      <point x="187" y="150"/>
      <point x="202" y="125"/>
    </contour>
  </outline>
</glyph>
<glyph name="quotesingle" format="1">
  <advance width="600"/>
  <unicode hex="0027"/>
  <outline>
    <contour>
      <point x="229" y="363" type="line"/>
      <point x="195" y="700" type="line"/>
      <point x="406" y="700" type="line"/>
      <point x="372" y="363" type="line"/>
    </contour>
  </outline>
</glyph>
<glyph name="parenleft" format="1">
  <advance width="600"/>
  <unicode hex="0028"/>
  <outline>
    <contour>
      <point x="358" y="-115" type="line"/>
      <point x="236" y="-18"/>
      <point x="127" y="132"/>
      <point x="127" y="304" type="curve" smooth="yes"/>
      <point x="127" y="487"/>
      <point x="236" y="633"/>
      <point x="358" y="730" type="curve"/>
      <point x="468" y="643" type="line"/>
      <point x="391" y="555"/>
      <point x="323" y="455"/>
      <point x="323" y="310" type="curve" smooth="yes"/>
      <point x="323" y="158"/>
      <point x="391" y="60"/>
      <point x="468" y="-28" type="curve"/>
    </contour>
  </outline>
</glyph>
<glyph name="parenright" format="1">
  <advance width="600"/>
  <unicode hex="0029"/>
  <outline>
    <contour>
      <point x="242" y="-115" type="curve"/>
      <point x="132" y="-28" type="line"/>
      <point x="209" y="60"/>
      <point x="277" y="158"/>
      <point x="277" y="310" type="curve" smooth="yes"/>
      <point x="277" y="455"/>
      <point x="209" y="555"/>
      <point x="132" y="643" type="curve"/>
      <point x="242" y="730" type="line"/>
      <point x="364" y="633"/>
      <point x="473" y="487"/>
      <point x="473" y="304" type="curve" smooth="yes"/>
      <point x="473" y="132"/>
      <point x="364" y="-18"/>
    </contour>
  </outline>
</glyph>
<glyph name="asterisk" format="1">
  <advance width="600"/>
  <unicode hex="002A"/>
  <outline>
    <contour>
      <point x="231" y="216" type="line"/>
      <point x="258" y="387" type="line"/>
      <point x="125" y="279" type="line"/>
      <point x="55" y="398" type="line"/>
      <point x="225" y="458" type="line"/>
      <point x="55" y="519" type="line"/>
      <point x="125" y="640" type="line"/>
      <point x="258" y="530" type="line"/>
      <point x="231" y="700" type="line"/>
      <point x="369" y="700" type="line"/>
      <point x="341" y="531" type="line"/>
      <point x="474" y="641" type="line"/>
      <point x="545" y="521" type="line"/>
      <point x="372" y="459" type="line"/>
      <point x="545" y="397" type="line"/>
      <point x="474" y="276" type="line"/>
      <point x="341" y="385" type="line"/>
      <point x="369" y="216" type="line"/>
    </contour>
  </outline>
</glyph>
<glyph name="plus" format="1">
  <advance width="600"/>
  <unicode hex="002B"/>
  <outline>
    <contour>
      <point x="219" y="95" type="line"/>
      <point x="219" y="268" type="line"/>
      <point x="57" y="268" type="line"/>
      <point x="57" y="420" type="line"/>
      <point x="219" y="420" type="line"/>
      <point x="219" y="593" type="line"/>
      <point x="381" y="593" type="line"/>
      <point x="381" y="420" type="line"/>
      <point x="543" y="420" type="line"/>
      <point x="543" y="268" type="line"/>
      <point x="381" y="268" type="line"/>
      <point x="381" y="95" type="line"/>
    </contour>
  </outline>
</glyph>
<glyph name="comma" format="1">
  <advance width="600"/>
  <unicode hex="002C"/>
  <outline>
    <contour>
      <point x="193" y="-115" type="line"/>
      <point x="210" y="203" type="line"/>
      <point x="423" y="203" type="line"/>
      <point x="320" y="-115" type="line"/>
    </contour>
  </outline>
</glyph>
<glyph name="hyphen" format="1">
  <advance width="600"/>
  <unicode hex="002D"/>
  <unicode hex="2010"/>
  <unicode hex="2011"/>
  <outline>
    <contour>
      <point x="121" y="274" type="line"/>
      <point x="121" y="442" type="line"/>
      <point x="479" y="442" type="line"/>
      <point x="479" y="274" type="line"/>
    </contour>
  </outline>
</glyph>
<glyph name="period" format="1">
  <advance width="600"/>
  <unicode hex="002E"/>
  <outline>
    <contour>
      <point x="299" y="-11" type="curve" smooth="yes"/>
      <point x="230" y="-11"/>
      <point x="180" y="39"/>
      <point x="180" y="105" type="curve" smooth="yes"/>
      <point x="180" y="170"/>
      <point x="230" y="218"/>
      <point x="299" y="218" type="curve" smooth="yes"/>
      <point x="368" y="218"/>
      <point x="419" y="170"/>
      <point x="419" y="105" type="curve" smooth="yes"/>
      <point x="419" y="39"/>
      <point x="368" y="-11"/>
    </contour>
  </outline>
</glyph>
<glyph name="slash" format="1">
  <advance width="600"/>
  <unicode hex="002F"/>
  <outline>
    <contour>
      <point x="18" y="-90" type="line"/>
      <point x="418" y="790" type="line"/>
      <point x="582" y="790" type="line"/>
      <point x="182" y="-90" type="line"/>
    </contour>
  </outline>
</glyph>
<glyph name="zero" format="1">
  <advance width="600"/>
  <unicode hex="0030"/>
  <outline>
    <contour>
      <point x="299" y="-11" type="curve" smooth="yes"/>
      <point x="140" y="-11"/>
      <point x="38" y="109"/>
      <point x="38" y="349" type="curve" smooth="yes"/>
      <point x="38" y="589"/>
      <point x="141" y="711"/>
      <point x="301" y="711" type="curve" smooth="yes"/>
      <point x="461" y="711"/>
      <point x="561" y="590"/>
      <point x="561" y="351" type="curve" smooth="yes"/>
      <point x="561" y="111"/>
      <point x="460" y="-11"/>
    </contour>
    <contour>
      <point x="301" y="138" type="curve" smooth="yes"/>
      <point x="357" y="138"/>
      <point x="385" y="189"/>
      <point x="385" y="349" type="curve" smooth="yes"/>
      <point x="385" y="509"/>
      <point x="356" y="562"/>
      <point x="299" y="562" type="curve" smooth="yes"/>
      <point x="243" y="562"/>
      <point x="215" y="511"/>
      <point x="215" y="351" type="curve" smooth="yes"/>
      <point x="215" y="190"/>
      <point x="245" y="138"/>
    </contour>
  </outline>
</glyph>
<glyph name="one" format="1">
  <advance width="600"/>
  <unicode hex="0031"/>
  <outline>
    <contour>
      <point x="85" y="0" type="line"/>
      <point x="85" y="135" type="line"/>
      <point x="234" y="135" type="line"/>
      <point x="234" y="488" type="line"/>
      <point x="88" y="488" type="line"/>
      <point x="88" y="609" type="line"/>
      <point x="199" y="613"/>
      <point x="240" y="639"/>
      <point x="258" y="700" type="curve"/>
      <point x="407" y="700" type="line"/>
      <point x="407" y="135" type="line"/>
      <point x="543" y="135" type="line"/>
      <point x="543" y="0" type="line"/>
    </contour>
  </outline>
</glyph>
<glyph name="two" format="1">
  <advance width="600"/>
  <unicode hex="0032"/>
  <outline>
    <contour>
      <point x="45" y="0" type="line"/>
      <point x="51" y="226"/>
      <point x="135" y="325"/>
      <point x="282" y="415" type="curve" smooth="yes"/>
      <point x="347" y="455"/>
      <point x="363" y="475"/>
      <point x="363" y="510" type="curve" smooth="yes"/>
      <point x="363" y="545"/>
      <point x="340" y="564"/>
      <point x="301" y="564" type="curve" smooth="yes"/>
      <point x="250" y="564"/>
      <point x="209" y="547"/>
      <point x="150" y="488" type="curve"/>
      <point x="47" y="595" type="line"/>
      <point x="117" y="669"/>
      <point x="189" y="711"/>
      <point x="304" y="711" type="curve" smooth="yes"/>
      <point x="452" y="711"/>
      <point x="531" y="639"/>
      <point x="531" y="524" type="curve" smooth="yes"/>
      <point x="531" y="439"/>
      <point x="501" y="383"/>
      <point x="393" y="315" type="curve" smooth="yes"/>
      <point x="276" y="241"/>
      <point x="242" y="197"/>
      <point x="231" y="145" type="curve"/>
      <point x="535" y="145" type="line"/>
      <point x="535" y="0" type="line"/>
    </contour>
  </outline>
</glyph>
<glyph name="three" format="1">
  <advance width="600"/>
  <unicode hex="0033"/>
  <outline>
    <contour>
      <point x="287" y="-11" type="curve" smooth="yes"/>
      <point x="176" y="-11"/>
      <point x="97" y="35"/>
      <point x="32" y="113" type="curve"/>
      <point x="143" y="214" type="line"/>
      <point x="186" y="162"/>
      <point x="232" y="135"/>
      <point x="289" y="135" type="curve" smooth="yes"/>
      <point x="350" y="135"/>
      <point x="380" y="162"/>
      <point x="380" y="214" type="curve" smooth="yes"/>
      <point x="380" y="271"/>
      <point x="353" y="295"/>
      <point x="286" y="295" type="curve" smooth="yes"/>
      <point x="211" y="295" type="line"/>
      <point x="211" y="435" type="line"/>
      <point x="283" y="435" type="line" smooth="yes"/>
      <point x="338" y="435"/>
      <point x="359" y="457"/>
      <point x="359" y="504" type="curve" smooth="yes"/>
      <point x="359" y="543"/>
      <point x="334" y="568"/>
      <point x="284" y="568" type="curve" smooth="yes"/>
      <point x="233" y="568"/>
      <point x="194" y="546"/>
      <point x="150" y="500" type="curve"/>
      <point x="49" y="603" type="line"/>
      <point x="105" y="664"/>
      <point x="175" y="711"/>
      <point x="289" y="711" type="curve" smooth="yes"/>
      <point x="437" y="711"/>
      <point x="530" y="651"/>
      <point x="530" y="522" type="curve" smooth="yes"/>
      <point x="530" y="441"/>
      <point x="488" y="398"/>
      <point x="440" y="374" type="curve"/>
      <point x="497" y="358"/>
      <point x="551" y="311"/>
      <point x="551" y="214" type="curve" smooth="yes"/>
      <point x="551" y="61"/>
      <point x="450" y="-11"/>
    </contour>
  </outline>
</glyph>
<glyph name="four" format="1">
  <advance width="600"/>
  <unicode hex="0034"/>
  <outline>
    <contour>
      <point x="347" y="0" type="line"/>
      <point x="347" y="135" type="line"/>
      <point x="32" y="135" type="line"/>
      <point x="32" y="256" type="line"/>
      <point x="328" y="700" type="line"/>
      <point x="497" y="700" type="line"/>
      <point x="497" y="273" type="line"/>
      <point x="565" y="273" type="line"/>
      <point x="565" y="131" type="line"/>
      <point x="497" y="131" type="line"/>
      <point x="497" y="0" type="line"/>
    </contour>
    <contour>
      <point x="199" y="271" type="curve"/>
      <point x="199" y="271"/>
      <point x="221" y="272"/>
      <point x="251" y="272" type="curve" smooth="yes"/>
      <point x="348" y="272" type="line"/>
      <point x="348" y="459" type="line" smooth="yes"/>
      <point x="348" y="492"/>
      <point x="349" y="519"/>
      <point x="349" y="519" type="curve"/>
      <point x="349" y="519"/>
      <point x="340" y="489"/>
      <point x="317" y="453" type="curve" smooth="yes"/>
      <point x="245" y="339" type="line" smooth="yes"/>
      <point x="217" y="295"/>
      <point x="199" y="271"/>
    </contour>
  </outline>
</glyph>
<glyph name="five" format="1">
  <advance width="600"/>
  <unicode hex="0035"/>
  <outline>
    <contour>
      <point x="286" y="-11" type="curve" smooth="yes"/>
      <point x="184" y="-11"/>
      <point x="107" y="30"/>
      <point x="40" y="99" type="curve"/>
      <point x="138" y="211" type="line"/>
      <point x="188" y="162"/>
      <point x="238" y="134"/>
      <point x="291" y="134" type="curve" smooth="yes"/>
      <point x="358" y="134"/>
      <point x="384" y="167"/>
      <point x="384" y="238" type="curve" smooth="yes"/>
      <point x="384" y="306"/>
      <point x="357" y="338"/>
      <point x="306" y="338" type="curve" smooth="yes"/>
      <point x="261" y="338"/>
      <point x="237" y="323"/>
      <point x="211" y="296" type="curve"/>
      <point x="67" y="336" type="line"/>
      <point x="87" y="700" type="line"/>
      <point x="518" y="700" type="line"/>
      <point x="518" y="557" type="line"/>
      <point x="228" y="557" type="line"/>
      <point x="222" y="449" type="line"/>
      <point x="253" y="467"/>
      <point x="281" y="479"/>
      <point x="343" y="479" type="curve" smooth="yes"/>
      <point x="472" y="479"/>
      <point x="551" y="399"/>
      <point x="551" y="242" type="curve" smooth="yes"/>
      <point x="551" y="81"/>
      <point x="458" y="-11"/>
    </contour>
  </outline>
</glyph>
<glyph name="six" format="1">
  <advance width="600"/>
  <unicode hex="0036"/>
  <outline>
    <contour>
      <point x="293" y="-11" type="curve" smooth="yes"/>
      <point x="143" y="-11"/>
      <point x="42" y="80"/>
      <point x="42" y="262" type="curve" smooth="yes"/>
      <point x="42" y="473"/>
      <point x="154" y="684"/>
      <point x="456" y="713" type="curve"/>
      <point x="483" y="576" type="line"/>
      <point x="334" y="555"/>
      <point x="253" y="494"/>
      <point x="212" y="412" type="curve"/>
      <point x="247" y="436"/>
      <point x="289" y="452"/>
      <point x="355" y="452" type="curve" smooth="yes"/>
      <point x="476" y="452"/>
      <point x="559" y="383"/>
      <point x="559" y="234" type="curve" smooth="yes"/>
      <point x="559" y="77"/>
      <point x="458" y="-11"/>
    </contour>
    <contour>
      <point x="300" y="129" type="curve" smooth="yes"/>
      <point x="355" y="129"/>
      <point x="391" y="156"/>
      <point x="391" y="222" type="curve" smooth="yes"/>
      <point x="391" y="288"/>
      <point x="359" y="319"/>
      <point x="303" y="319" type="curve" smooth="yes"/>
      <point x="238" y="319"/>
      <point x="208" y="288"/>
      <point x="208" y="221" type="curve" smooth="yes"/>
      <point x="208" y="160"/>
      <point x="237" y="129"/>
    </contour>
  </outline>
</glyph>
<glyph name="seven" format="1">
  <advance width="600"/>
  <unicode hex="0037"/>
  <outline>
    <contour>
      <point x="166" y="0" type="line"/>
      <point x="167" y="224"/>
      <point x="216" y="399"/>
      <point x="348" y="554" type="curve"/>
      <point x="42" y="554" type="line"/>
      <point x="42" y="700" type="line"/>
      <point x="546" y="700" type="line"/>
      <point x="546" y="567" type="line"/>
      <point x="366" y="378"/>
      <point x="336" y="238"/>
      <point x="336" y="0" type="curve"/>
    </contour>
  </outline>
</glyph>
<glyph name="eight" format="1">
  <advance width="600"/>
  <unicode hex="0038"/>
  <outline>
    <contour>
      <point x="299" y="-11" type="curve" smooth="yes"/>
      <point x="140" y="-11"/>
      <point x="40" y="71"/>
      <point x="40" y="214" type="curve" smooth="yes"/>
      <point x="40" y="306"/>
      <point x="90" y="353"/>
      <point x="132" y="377" type="curve"/>
      <point x="94" y="402"/>
      <point x="62" y="446"/>
      <point x="62" y="512" type="curve" smooth="yes"/>
      <point x="62" y="633"/>
      <point x="159" y="711"/>
      <point x="301" y="711" type="curve" smooth="yes"/>
      <point x="446" y="711"/>
      <point x="539" y="632"/>
      <point x="539" y="512" type="curve" smooth="yes"/>
      <point x="539" y="446"/>
      <point x="507" y="407"/>
      <point x="467" y="379" type="curve"/>
      <point x="511" y="355"/>
      <point x="560" y="306"/>
      <point x="560" y="214" type="curve" smooth="yes"/>
      <point x="560" y="70"/>
      <point x="459" y="-11"/>
    </contour>
    <contour>
      <point x="301" y="437" type="curve" smooth="yes"/>
      <point x="355" y="437"/>
      <point x="375" y="467"/>
      <point x="375" y="508" type="curve" smooth="yes"/>
      <point x="375" y="553"/>
      <point x="353" y="581"/>
      <point x="299" y="581" type="curve" smooth="yes"/>
      <point x="246" y="581"/>
      <point x="225" y="554"/>
      <point x="225" y="509" type="curve" smooth="yes"/>
      <point x="225" y="468"/>
      <point x="247" y="437"/>
    </contour>
    <contour>
      <point x="301" y="125" type="curve" smooth="yes"/>
      <point x="363" y="125"/>
      <point x="395" y="154"/>
      <point x="395" y="217" type="curve" smooth="yes"/>
      <point x="395" y="278"/>
      <point x="361" y="310"/>
      <point x="299" y="310" type="curve" smooth="yes"/>
      <point x="237" y="310"/>
      <point x="205" y="278"/>
      <point x="205" y="218" type="curve" smooth="yes"/>
      <point x="205" y="154"/>
      <point x="239" y="125"/>
    </contour>
  </outline>
</glyph>
<glyph name="nine" format="1">
  <advance width="600"/>
  <unicode hex="0039"/>
  <outline>
    <contour>
      <point x="144" y="-13" type="curve"/>
      <point x="117" y="124" type="line"/>
      <point x="267" y="145"/>
      <point x="347" y="206"/>
      <point x="388" y="288" type="curve"/>
      <point x="353" y="264"/>
      <point x="311" y="248"/>
      <point x="246" y="248" type="curve" smooth="yes"/>
      <point x="123" y="248"/>
      <point x="40" y="317"/>
      <point x="40" y="466" type="curve" smooth="yes"/>
      <point x="40" y="623"/>
      <point x="142" y="711"/>
      <point x="307" y="711" type="curve" smooth="yes"/>
      <point x="457" y="711"/>
      <point x="557" y="620"/>
      <point x="557" y="438" type="curve" smooth="yes"/>
      <point x="557" y="227"/>
      <point x="446" y="16"/>
    </contour>
    <contour>
      <point x="297" y="381" type="curve" smooth="yes"/>
      <point x="362" y="381"/>
      <point x="391" y="412"/>
      <point x="391" y="479" type="curve" smooth="yes"/>
      <point x="391" y="540"/>
      <point x="362" y="571"/>
      <point x="299" y="571" type="curve" smooth="yes"/>
      <point x="245" y="571"/>
      <point x="209" y="544"/>
      <point x="209" y="478" type="curve" smooth="yes"/>
      <point x="209" y="412"/>
      <point x="240" y="381"/>
    </contour>
  </outline>
</glyph>
<glyph name="colon" format="1">
  <advance width="600"/>
  <unicode hex="003A"/>
  <outline>
    <contour>
      <point x="299" y="307" type="curve" smooth="yes"/>
      <point x="230" y="307"/>
      <point x="180" y="357"/>
      <point x="180" y="423" type="curve" smooth="yes"/>
      <point x="180" y="488"/>
      <point x="230" y="536"/>
      <point x="299" y="536" type="curve" smooth="yes"/>
      <point x="368" y="536"/>
      <point x="419" y="488"/>
      <point x="419" y="423" type="curve" smooth="yes"/>
      <point x="419" y="357"/>
      <point x="368" y="307"/>
    </contour>
    <contour>
      <point x="299" y="-11" type="curve" smooth="yes"/>
      <point x="230" y="-11"/>
      <point x="180" y="39"/>
      <point x="180" y="105" type="curve" smooth="yes"/>
      <point x="180" y="170"/>
      <point x="230" y="218"/>
      <point x="299" y="218" type="curve" smooth="yes"/>
      <point x="368" y="218"/>
      <point x="419" y="170"/>
      <point x="419" y="105" type="curve" smooth="yes"/>
      <point x="419" y="39"/>
      <point x="368" y="-11"/>
    </contour>
  </outline>
</glyph>
<glyph name="semicolon" format="1">
  <advance width="600"/>
  <unicode hex="003B"/>
  <outline>
    <contour>
      <point x="299" y="307" type="curve" smooth="yes"/>
      <point x="230" y="307"/>
      <point x="180" y="357"/>
      <point x="180" y="423" type="curve" smooth="yes"/>
      <point x="180" y="488"/>
      <point x="230" y="536"/>
      <point x="299" y="536" type="curve" smooth="yes"/>
      <point x="368" y="536"/>
      <point x="419" y="488"/>
      <point x="419" y="423" type="curve" smooth="yes"/>
      <point x="419" y="357"/>
      <point x="368" y="307"/>
    </contour>
    <contour>
      <point x="172" y="-115" type="line"/>
      <point x="189" y="203" type="line"/>
      <point x="402" y="203" type="line"/>
      <point x="299" y="-115" type="line"/>
    </contour>
  </outline>
</glyph>
<glyph name="less" format="1">
  <advance width="600"/>
  <unicode hex="003C"/>
  <outline>
    <contour>
      <point x="505" y="9" type="line"/>
      <point x="98" y="294" type="line"/>
      <point x="98" y="406" type="line"/>
      <point x="505" y="691" type="line"/>
      <point x="505" y="487" type="line"/>
      <point x="280" y="352" type="line"/>
      <point x="505" y="217" type="line"/>
    </contour>
  </outline>
</glyph>
<glyph name="equal" format="1">
  <advance width="600"/>
  <unicode hex="003D"/>
  <outline>
    <contour>
      <point x="80" y="382" type="line"/>
      <point x="80" y="534" type="line"/>
      <point x="520" y="534" type="line"/>
      <point x="520" y="382" type="line"/>
    </contour>
    <contour>
      <point x="80" y="129" type="line"/>
      <point x="80" y="281" type="line"/>
      <point x="520" y="281" type="line"/>
      <point x="520" y="129" type="line"/>
    </contour>
  </outline>
</glyph>
<glyph name="greater" format="1">
  <advance width="600"/>
  <unicode hex="003E"/>
  <outline>
    <contour>
      <point x="95" y="9" type="line"/>
      <point x="95" y="213" type="line"/>
      <point x="320" y="348" type="line"/>
      <point x="95" y="483" type="line"/>
      <point x="95" y="691" type="line"/>
      <point x="502" y="406" type="line"/>
      <point x="502" y="294" type="line"/>
    </contour>
  </outline>
</glyph>
<glyph name="question" format="1">
  <advance width="600"/>
  <unicode hex="003F"/>
  <outline>
    <contour>
      <point x="193" y="245" type="line"/>
      <point x="193" y="332"/>
      <point x="221" y="388"/>
      <point x="317" y="437" type="curve" smooth="yes"/>
      <point x="359" y="458"/>
      <point x="378" y="474"/>
      <point x="378" y="503" type="curve" smooth="yes"/>
      <point x="378" y="533"/>
      <point x="354" y="561"/>
      <point x="304" y="561" type="curve" smooth="yes"/>
      <point x="236" y="561"/>
      <point x="179" y="534"/>
      <point x="124" y="493" type="curve"/>
      <point x="38" y="623" type="line"/>
      <point x="111" y="676"/>
      <point x="198" y="711"/>
      <point x="307" y="711" type="curve" smooth="yes"/>
      <point x="465" y="711"/>
      <point x="557" y="645"/>
      <point x="557" y="521" type="curve" smooth="yes"/>
      <point x="557" y="438"/>
      <point x="515" y="395"/>
      <point x="439" y="354" type="curve" smooth="yes"/>
      <point x="383" y="324"/>
      <point x="362" y="295"/>
      <point x="362" y="245" type="curve"/>
    </contour>
    <contour>
      <point x="278" y="-11" type="curve" smooth="yes"/>
      <point x="220" y="-11"/>
      <point x="178" y="32"/>
      <point x="178" y="89" type="curve" smooth="yes"/>
      <point x="178" y="145"/>
      <point x="220" y="186"/>
      <point x="278" y="186" type="curve" smooth="yes"/>
      <point x="336" y="186"/>
      <point x="377" y="145"/>
      <point x="377" y="89" type="curve" smooth="yes"/>
      <point x="377" y="32"/>
      <point x="336" y="-11"/>
    </contour>
  </outline>
</glyph>
<glyph name="at" format="1">
  <advance width="600"/>
  <unicode hex="0040"/>
  <outline>
    <contour>
      <point x="301" y="-11" type="curve" smooth="yes"/>
      <point x="143" y="-11"/>
      <point x="41" y="128"/>
      <point x="41" y="350" type="curve" smooth="yes"/>
      <point x="41" y="569"/>
      <point x="141" y="711"/>
      <point x="301" y="711" type="curve" smooth="yes"/>
      <point x="461" y="711"/>
      <point x="559" y="562"/>
      <point x="559" y="360" type="curve" smooth="yes"/>
      <point x="559" y="211"/>
      <point x="514" y="154"/>
      <point x="444" y="154" type="curve" smooth="yes"/>
      <point x="403" y="154"/>
      <point x="378" y="169"/>
      <point x="359" y="192" type="curve"/>
      <point x="331" y="165"/>
      <point x="311" y="152"/>
      <point x="272" y="152" type="curve" smooth="yes"/>
      <point x="214" y="152"/>
      <point x="175" y="196"/>
      <point x="175" y="284" type="curve" smooth="yes"/>
      <point x="175" y="370"/>
      <point x="210" y="415"/>
      <point x="267" y="415" type="curve" smooth="yes"/>
      <point x="293" y="415"/>
      <point x="311" y="411"/>
      <point x="330" y="397" type="curve"/>
      <point x="330" y="437" type="line" smooth="yes"/>
      <point x="330" y="470"/>
      <point x="321" y="481"/>
      <point x="291" y="481" type="curve" smooth="yes"/>
      <point x="266" y="481"/>
      <point x="246" y="475"/>
      <point x="219" y="458" type="curve"/>
      <point x="189" y="524" type="line"/>
      <point x="224" y="547"/>
      <point x="261" y="560"/>
      <point x="304" y="560" type="curve" smooth="yes"/>
      <point x="376" y="560"/>
      <point x="413" y="523"/>
      <point x="413" y="445" type="curve" smooth="yes"/>
      <point x="413" y="274" type="line" smooth="yes"/>
      <point x="413" y="230"/>
      <point x="421" y="212"/>
      <point x="447" y="212" type="curve" smooth="yes"/>
      <point x="479" y="212"/>
      <point x="495" y="246"/>
      <point x="495" y="361" type="curve" smooth="yes"/>
      <point x="495" y="546"/>
      <point x="417" y="652"/>
      <point x="301" y="652" type="curve" smooth="yes"/>
      <point x="175" y="652"/>
      <point x="105" y="538"/>
      <point x="105" y="351" type="curve" smooth="yes"/>
      <point x="105" y="159"/>
      <point x="177" y="48"/>
      <point x="302" y="48" type="curve" smooth="yes"/>
      <point x="337" y="48"/>
      <point x="370" y="60"/>
      <point x="396" y="77" type="curve"/>
      <point x="424" y="25" type="line"/>
      <point x="389" y="3"/>
      <point x="346" y="-11"/>
    </contour>
    <contour>
      <point x="291" y="230" type="curve" smooth="yes"/>
      <point x="307" y="230"/>
      <point x="321" y="239"/>
      <point x="330" y="248" type="curve"/>
      <point x="330" y="333" type="line"/>
      <point x="319" y="339"/>
      <point x="307" y="342"/>
      <point x="292" y="342" type="curve" smooth="yes"/>
      <point x="269" y="342"/>
      <point x="258" y="330"/>
      <point x="258" y="285" type="curve" smooth="yes"/>
      <point x="258" y="245"/>
      <point x="269" y="230"/>
    </contour>
  </outline>
</glyph>
<glyph name="A" format="1">
  <advance width="600"/>
  <unicode hex="0041"/>
  <outline>
    <contour>
      <point x="26" y="0" type="line"/>
      <point x="211" y="700" type="line"/>
      <point x="390" y="700" type="line"/>
      <point x="574" y="0" type="line"/>
      <point x="395" y="0" type="line"/>
      <point x="369" y="125" type="line"/>
      <point x="226" y="125" type="line"/>
      <point x="201" y="0" type="line"/>
    </contour>
    <contour>
      <point x="252" y="266" type="line"/>
      <point x="342" y="266" type="line"/>
      <point x="338" y="291" type="line" smooth="yes"/>
      <point x="321" y="397"/>
      <point x="307" y="482"/>
      <point x="297" y="552" type="curve"/>
      <point x="288" y="482"/>
      <point x="274" y="396"/>
      <point x="256" y="290" type="curve" smooth="yes"/>
    </contour>
  </outline>
</glyph>
<glyph name="B" format="1">
  <advance width="600"/>
  <unicode hex="0042"/>
  <outline>
    <contour>
      <point x="65" y="0" type="line"/>
      <point x="65" y="700" type="line"/>
      <point x="332" y="700" type="line" smooth="yes"/>
      <point x="477" y="700"/>
      <point x="543" y="637"/>
      <point x="543" y="516" type="curve" smooth="yes"/>
      <point x="543" y="440"/>
      <point x="510" y="401"/>
      <point x="462" y="374" type="curve"/>
      <point x="520" y="348"/>
      <point x="555" y="301"/>
      <point x="555" y="217" type="curve" smooth="yes"/>
      <point x="555" y="80"/>
      <point x="482" y="0"/>
      <point x="328" y="0" type="curve" smooth="yes"/>
    </contour>
    <contour>
      <point x="237" y="429" type="line"/>
      <point x="318" y="429" type="line" smooth="yes"/>
      <point x="355" y="429"/>
      <point x="373" y="451"/>
      <point x="373" y="497" type="curve" smooth="yes"/>
      <point x="373" y="542"/>
      <point x="356" y="563"/>
      <point x="316" y="563" type="curve" smooth="yes"/>
      <point x="237" y="563" type="line"/>
    </contour>
    <contour>
      <point x="237" y="137" type="line"/>
      <point x="321" y="137" type="line" smooth="yes"/>
      <point x="362" y="137"/>
      <point x="384" y="162"/>
      <point x="384" y="217" type="curve" smooth="yes"/>
      <point x="384" y="272"/>
      <point x="363" y="296"/>
      <point x="321" y="296" type="curve" smooth="yes"/>
      <point x="237" y="296" type="line"/>
    </contour>
  </outline>
</glyph>
<glyph name="C" format="1">
  <advance width="600"/>
  <unicode hex="0043"/>
  <outline>
    <contour>
      <point x="313" y="-11" type="curve" smooth="yes"/>
      <point x="136" y="-11"/>
      <point x="46" y="123"/>
      <point x="46" y="349" type="curve" smooth="yes"/>
      <point x="46" y="587"/>
      <point x="149" y="711"/>
      <point x="315" y="711" type="curve" smooth="yes"/>
      <point x="469" y="711"/>
      <point x="525" y="630"/>
      <point x="558" y="497" type="curve"/>
      <point x="392" y="445" type="line"/>
      <point x="375" y="521"/>
      <point x="362" y="558"/>
      <point x="314" y="558" type="curve" smooth="yes"/>
      <point x="252" y="558"/>
      <point x="226" y="496"/>
      <point x="226" y="351" type="curve" smooth="yes"/>
      <point x="226" y="206"/>
      <point x="252" y="142"/>
      <point x="316" y="142" type="curve" smooth="yes"/>
      <point x="361" y="142"/>
      <point x="379" y="175"/>
      <point x="402" y="250" type="curve"/>
      <point x="560" y="187" type="line"/>
      <point x="525" y="70"/>
      <point x="460" y="-11"/>
    </contour>
  </outline>
</glyph>
<glyph name="D" format="1">
  <advance width="600"/>
  <unicode hex="0044"/>
  <outline>
    <contour>
      <point x="59" y="0" type="line"/>
      <point x="59" y="700" type="line"/>
      <point x="275" y="700" type="line" smooth="yes"/>
      <point x="462" y="700"/>
      <point x="562" y="597"/>
      <point x="562" y="355" type="curve" smooth="yes"/>
      <point x="562" y="101"/>
      <point x="458" y="0"/>
      <point x="260" y="0" type="curve" smooth="yes"/>
    </contour>
    <contour>
      <point x="238" y="145" type="line"/>
      <point x="266" y="145" type="line" smooth="yes"/>
      <point x="349" y="145"/>
      <point x="382" y="180"/>
      <point x="382" y="352" type="curve" smooth="yes"/>
      <point x="382" y="517"/>
      <point x="354" y="554"/>
      <point x="270" y="554" type="curve" smooth="yes"/>
      <point x="238" y="554" type="line"/>
    </contour>
  </outline>
</glyph>
<glyph name="E" format="1">
  <advance width="600"/>
  <unicode hex="0045"/>
  <outline>
    <contour>
      <point x="70" y="0" type="line"/>
      <point x="70" y="700" type="line"/>
      <point x="540" y="700" type="line"/>
      <point x="540" y="548" type="line"/>
      <point x="249" y="548" type="line"/>
      <point x="249" y="440" type="line"/>
      <point x="437" y="440" type="line"/>
      <point x="437" y="289" type="line"/>
      <point x="249" y="289" type="line"/>
      <point x="249" y="152" type="line"/>
      <point x="547" y="152" type="line"/>
      <point x="547" y="0" type="line"/>
    </contour>
  </outline>
</glyph>
<glyph name="F" format="1">
  <advance width="600"/>
  <unicode hex="0046"/>
  <outline>
    <contour>
      <point x="70" y="0" type="line"/>
      <point x="70" y="700" type="line"/>
      <point x="560" y="700" type="line"/>
      <point x="560" y="548" type="line"/>
      <point x="249" y="548" type="line"/>
      <point x="249" y="434" type="line"/>
      <point x="453" y="434" type="line"/>
      <point x="453" y="283" type="line"/>
      <point x="249" y="283" type="line"/>
      <point x="249" y="0" type="line"/>
    </contour>
  </outline>
</glyph>
<glyph name="G" format="1">
  <advance width="600"/>
  <unicode hex="0047"/>
  <outline>
    <contour>
      <point x="303" y="-11" type="curve" smooth="yes"/>
      <point x="139" y="-11"/>
      <point x="42" y="109"/>
      <point x="42" y="350" type="curve" smooth="yes"/>
      <point x="42" y="579"/>
      <point x="130" y="711"/>
      <point x="306" y="711" type="curve" smooth="yes"/>
      <point x="457" y="711"/>
      <point x="510" y="636"/>
      <point x="543" y="504" type="curve"/>
      <point x="381" y="455" type="line"/>
      <point x="365" y="528"/>
      <point x="350" y="563"/>
      <point x="305" y="563" type="curve" smooth="yes"/>
      <point x="241" y="563"/>
      <point x="220" y="504"/>
      <point x="220" y="350" type="curve" smooth="yes"/>
      <point x="220" y="182"/>
      <point x="248" y="133"/>
      <point x="313" y="133" type="curve" smooth="yes"/>
      <point x="372" y="133"/>
      <point x="393" y="167"/>
      <point x="393" y="221" type="curve" smooth="yes"/>
      <point x="393" y="246" type="line"/>
      <point x="306" y="246" type="line"/>
      <point x="306" y="376" type="line"/>
      <point x="555" y="376" type="line"/>
      <point x="555" y="270" type="line" smooth="yes"/>
      <point x="555" y="96"/>
      <point x="472" y="-11"/>
    </contour>
  </outline>
</glyph>
<glyph name="H" format="1">
  <advance width="600"/>
  <unicode hex="0048"/>
  <outline>
    <contour>
      <point x="56" y="0" type="line"/>
      <point x="56" y="700" type="line"/>
      <point x="235" y="700" type="line"/>
      <point x="235" y="449" type="line"/>
      <point x="365" y="449" type="line"/>
      <point x="365" y="700" type="line"/>
      <point x="544" y="700" type="line"/>
      <point x="544" y="0" type="line"/>
      <point x="365" y="0" type="line"/>
      <point x="365" y="283" type="line"/>
      <point x="235" y="283" type="line"/>
      <point x="235" y="0" type="line"/>
    </contour>
  </outline>
</glyph>
<glyph name="I" format="1">
  <advance width="600"/>
  <unicode hex="0049"/>
  <outline>
    <contour>
      <point x="114" y="0" type="line"/>
      <point x="114" y="135" type="line"/>
      <point x="210" y="135" type="line"/>
      <point x="210" y="565" type="line"/>
      <point x="114" y="565" type="line"/>
      <point x="114" y="700" type="line"/>
      <point x="486" y="700" type="line"/>
      <point x="486" y="565" type="line"/>
      <point x="389" y="565" type="line"/>
      <point x="389" y="135" type="line"/>
      <point x="486" y="135" type="line"/>
      <point x="486" y="0" type="line"/>
    </contour>
  </outline>
</glyph>
<glyph name="J" format="1">
  <advance width="600"/>
  <unicode hex="004A"/>
  <outline>
    <contour>
      <point x="281" y="-11" type="curve" smooth="yes"/>
      <point x="127" y="-11"/>
      <point x="57" y="83"/>
      <point x="31" y="214" type="curve"/>
      <point x="193" y="255" type="line"/>
      <point x="211" y="181"/>
      <point x="233" y="142"/>
      <point x="284" y="142" type="curve" smooth="yes"/>
      <point x="335" y="142"/>
      <point x="356" y="176"/>
      <point x="356" y="237" type="curve" smooth="yes"/>
      <point x="356" y="700" type="line"/>
      <point x="535" y="700" type="line"/>
      <point x="535" y="254" type="line" smooth="yes"/>
      <point x="535" y="86"/>
      <point x="454" y="-11"/>
    </contour>
  </outline>
</glyph>
<glyph name="K" format="1">
  <advance width="600"/>
  <unicode hex="004B"/>
  <outline>
    <contour>
      <point x="56" y="0" type="line"/>
      <point x="56" y="700" type="line"/>
      <point x="235" y="700" type="line"/>
      <point x="235" y="618" type="line" smooth="yes"/>
      <point x="235" y="551"/>
      <point x="235" y="480"/>
      <point x="231" y="424" type="curve"/>
      <point x="255" y="478"/>
      <point x="292" y="563"/>
      <point x="327" y="625" type="curve" smooth="yes"/>
      <point x="369" y="700" type="line"/>
      <point x="563" y="700" type="line"/>
      <point x="407" y="444" type="line"/>
      <point x="569" y="0" type="line"/>
      <point x="376" y="0" type="line"/>
      <point x="279" y="286" type="line"/>
      <point x="235" y="219" type="line"/>
      <point x="235" y="0" type="line"/>
    </contour>
  </outline>
</glyph>
<glyph name="L" format="1">
  <advance width="600"/>
  <unicode hex="004C"/>
  <outline>
    <contour>
      <point x="76" y="0" type="line"/>
      <point x="76" y="700" type="line"/>
      <point x="255" y="700" type="line"/>
      <point x="255" y="152" type="line"/>
      <point x="545" y="152" type="line"/>
      <point x="545" y="0" type="line"/>
    </contour>
  </outline>
</glyph>
<glyph name="M" format="1">
  <advance width="600"/>
  <unicode hex="004D"/>
  <outline>
    <contour>
      <point x="300" y="-18" type="line"/>
      <point x="246" y="145" type="line" smooth="yes"/>
      <point x="220" y="224"/>
      <point x="199" y="304"/>
      <point x="186" y="360" type="curve"/>
      <point x="188" y="300"/>
      <point x="190" y="227"/>
      <point x="190" y="150" type="curve" smooth="yes"/>
      <point x="190" y="0" type="line"/>
      <point x="47" y="0" type="line"/>
      <point x="47" y="700" type="line"/>
      <point x="194" y="700" type="line"/>
      <point x="245" y="532" type="line" smooth="yes"/>
      <point x="270" y="450"/>
      <point x="291" y="371"/>
      <point x="300" y="318" type="curve"/>
      <point x="310" y="371"/>
      <point x="330" y="450"/>
      <point x="355" y="533" type="curve" smooth="yes"/>
      <point x="406" y="700" type="line"/>
      <point x="553" y="700" type="line"/>
      <point x="553" y="0" type="line"/>
      <point x="411" y="0" type="line"/>
      <point x="411" y="150" type="line" smooth="yes"/>
      <point x="411" y="227"/>
      <point x="412" y="298"/>
      <point x="415" y="360" type="curve"/>
      <point x="402" y="304"/>
      <point x="379" y="221"/>
      <point x="354" y="145" type="curve" smooth="yes"/>
    </contour>
  </outline>
</glyph>
<glyph name="N" format="1">
  <advance width="600"/>
  <unicode hex="004E"/>
  <outline>
    <contour>
      <point x="61" y="0" type="line"/>
      <point x="61" y="700" type="line"/>
      <point x="209" y="700" type="line"/>
      <point x="298" y="531" type="line" smooth="yes"/>
      <point x="341" y="450"/>
      <point x="378" y="369"/>
      <point x="391" y="331" type="curve"/>
      <point x="387" y="369"/>
      <point x="385" y="465"/>
      <point x="385" y="533" type="curve" smooth="yes"/>
      <point x="385" y="700" type="line"/>
      <point x="538" y="700" type="line"/>
      <point x="538" y="0" type="line"/>
      <point x="404" y="0" type="line"/>
      <point x="299" y="211" type="line" smooth="yes"/>
      <point x="259" y="291"/>
      <point x="223" y="366"/>
      <point x="209" y="406" type="curve"/>
      <point x="213" y="366"/>
      <point x="214" y="284"/>
      <point x="214" y="208" type="curve" smooth="yes"/>
      <point x="214" y="0" type="line"/>
    </contour>
  </outline>
</glyph>
<glyph name="O" format="1">
  <advance width="600"/>
  <unicode hex="004F"/>
  <outline>
    <contour>
      <point x="299" y="-11" type="curve" smooth="yes"/>
      <point x="139" y="-11"/>
      <point x="38" y="103"/>
      <point x="38" y="349" type="curve" smooth="yes"/>
      <point x="38" y="595"/>
      <point x="141" y="711"/>
      <point x="301" y="711" type="curve" smooth="yes"/>
      <point x="461" y="711"/>
      <point x="562" y="596"/>
      <point x="562" y="351" type="curve" smooth="yes"/>
      <point x="562" y="105"/>
      <point x="459" y="-11"/>
    </contour>
    <contour>
      <point x="301" y="142" type="curve" smooth="yes"/>
      <point x="355" y="142"/>
      <point x="382" y="184"/>
      <point x="382" y="349" type="curve" smooth="yes"/>
      <point x="382" y="514"/>
      <point x="354" y="558"/>
      <point x="299" y="558" type="curve" smooth="yes"/>
      <point x="244" y="558"/>
      <point x="218" y="516"/>
      <point x="218" y="351" type="curve" smooth="yes"/>
      <point x="218" y="186"/>
      <point x="246" y="142"/>
    </contour>
  </outline>
</glyph>
<glyph name="P" format="1">
  <advance width="600"/>
  <unicode hex="0050"/>
  <outline>
    <contour>
      <point x="63" y="0" type="line"/>
      <point x="63" y="700" type="line"/>
      <point x="322" y="700" type="line" smooth="yes"/>
      <point x="461" y="700"/>
      <point x="560" y="642"/>
      <point x="560" y="477" type="curve" smooth="yes"/>
      <point x="560" y="307"/>
      <point x="456" y="244"/>
      <point x="310" y="244" type="curve" smooth="yes"/>
      <point x="242" y="244" type="line"/>
      <point x="242" y="0" type="line"/>
    </contour>
    <contour>
      <point x="242" y="386" type="line"/>
      <point x="308" y="386" type="line" smooth="yes"/>
      <point x="361" y="386"/>
      <point x="381" y="414"/>
      <point x="381" y="473" type="curve" smooth="yes"/>
      <point x="381" y="530"/>
      <point x="363" y="558"/>
      <point x="311" y="558" type="curve" smooth="yes"/>
      <point x="242" y="558" type="line"/>
    </contour>
  </outline>
</glyph>
<glyph name="Q" format="1">
  <advance width="600"/>
  <unicode hex="0051"/>
  <outline>
    <contour>
      <point x="473" y="-44" type="line"/>
      <point x="417" y="16" type="line"/>
      <point x="383" y="-2"/>
      <point x="343" y="-11"/>
      <point x="299" y="-11" type="curve" smooth="yes"/>
      <point x="139" y="-11"/>
      <point x="38" y="103"/>
      <point x="38" y="349" type="curve" smooth="yes"/>
      <point x="38" y="595"/>
      <point x="141" y="711"/>
      <point x="301" y="711" type="curve" smooth="yes"/>
      <point x="461" y="711"/>
      <point x="562" y="596"/>
      <point x="562" y="351" type="curve" smooth="yes"/>
      <point x="562" y="242"/>
      <point x="542" y="158"/>
      <point x="505" y="99" type="curve"/>
      <point x="562" y="38" type="line"/>
    </contour>
    <contour>
      <point x="301" y="133" type="curve" smooth="yes"/>
      <point x="304" y="133"/>
      <point x="306" y="133"/>
      <point x="309" y="133" type="curve"/>
      <point x="258" y="189" type="line"/>
      <point x="345" y="271" type="line"/>
      <point x="378" y="235" type="line"/>
      <point x="382" y="265"/>
      <point x="384" y="302"/>
      <point x="384" y="349" type="curve" smooth="yes"/>
      <point x="384" y="514"/>
      <point x="354" y="558"/>
      <point x="299" y="558" type="curve" smooth="yes"/>
      <point x="244" y="558"/>
      <point x="216" y="516"/>
      <point x="216" y="351" type="curve" smooth="yes"/>
      <point x="216" y="186"/>
      <point x="246" y="133"/>
    </contour>
  </outline>
</glyph>
<glyph name="R" format="1">
  <advance width="600"/>
  <unicode hex="0052"/>
  <outline>
    <contour>
      <point x="60" y="0" type="line"/>
      <point x="60" y="700" type="line"/>
      <point x="321" y="700" type="line" smooth="yes"/>
      <point x="454" y="700"/>
      <point x="548" y="642"/>
      <point x="548" y="484" type="curve" smooth="yes"/>
      <point x="548" y="391"/>
      <point x="510" y="330"/>
      <point x="450" y="296" type="curve"/>
      <point x="559" y="0" type="line"/>
      <point x="374" y="0" type="line"/>
      <point x="286" y="261" type="line"/>
      <point x="239" y="261" type="line"/>
      <point x="239" y="0" type="line"/>
    </contour>
    <contour>
      <point x="239" y="396" type="line"/>
      <point x="307" y="396" type="line" smooth="yes"/>
      <point x="358" y="396"/>
      <point x="376" y="423"/>
      <point x="376" y="479" type="curve" smooth="yes"/>
      <point x="376" y="535"/>
      <point x="359" y="561"/>
      <point x="310" y="561" type="curve" smooth="yes"/>
      <point x="239" y="561" type="line"/>
    </contour>
  </outline>
</glyph>
<glyph name="S" format="1">
  <advance width="600"/>
  <unicode hex="0053"/>
  <outline>
    <contour>
      <point x="300" y="-11" type="curve" smooth="yes"/>
      <point x="189" y="-11"/>
      <point x="109" y="31"/>
      <point x="45" y="97" type="curve"/>
      <point x="151" y="220" type="line"/>
      <point x="200" y="172"/>
      <point x="254" y="140"/>
      <point x="303" y="140" type="curve" smooth="yes"/>
      <point x="352" y="140"/>
      <point x="375" y="158"/>
      <point x="375" y="191" type="curve" smooth="yes"/>
      <point x="375" y="225"/>
      <point x="360" y="242"/>
      <point x="274" y="273" type="curve" smooth="yes"/>
      <point x="123" y="328"/>
      <point x="61" y="379"/>
      <point x="61" y="500" type="curve" smooth="yes"/>
      <point x="61" y="621"/>
      <point x="153" y="711"/>
      <point x="301" y="711" type="curve" smooth="yes"/>
      <point x="417" y="711"/>
      <point x="484" y="673"/>
      <point x="543" y="612" type="curve"/>
      <point x="436" y="488" type="line"/>
      <point x="382" y="539"/>
      <point x="348" y="560"/>
      <point x="294" y="560" type="curve" smooth="yes"/>
      <point x="252" y="560"/>
      <point x="235" y="539"/>
      <point x="235" y="513" type="curve" smooth="yes"/>
      <point x="235" y="481"/>
      <point x="256" y="466"/>
      <point x="333" y="437" type="curve" smooth="yes"/>
      <point x="487" y="379"/>
      <point x="551" y="325"/>
      <point x="551" y="203" type="curve" smooth="yes"/>
      <point x="551" y="61"/>
      <point x="444" y="-11"/>
    </contour>
  </outline>
</glyph>
<glyph name="T" format="1">
  <advance width="600"/>
  <unicode hex="0054"/>
  <outline>
    <contour>
      <point x="211" y="0" type="line"/>
      <point x="211" y="548" type="line"/>
      <point x="43" y="548" type="line"/>
      <point x="43" y="700" type="line"/>
      <point x="557" y="700" type="line"/>
      <point x="557" y="548" type="line"/>
      <point x="389" y="548" type="line"/>
      <point x="389" y="0" type="line"/>
    </contour>
  </outline>
</glyph>
<glyph name="U" format="1">
  <advance width="600"/>
  <unicode hex="0055"/>
  <outline>
    <contour>
      <point x="298" y="-11" type="curve" smooth="yes"/>
      <point x="152" y="-11"/>
      <point x="55" y="74"/>
      <point x="55" y="247" type="curve" smooth="yes"/>
      <point x="55" y="700" type="line"/>
      <point x="234" y="700" type="line"/>
      <point x="234" y="242" type="line" smooth="yes"/>
      <point x="234" y="175"/>
      <point x="251" y="146"/>
      <point x="301" y="146" type="curve" smooth="yes"/>
      <point x="351" y="146"/>
      <point x="366" y="175"/>
      <point x="366" y="242" type="curve" smooth="yes"/>
      <point x="366" y="700" type="line"/>
      <point x="545" y="700" type="line"/>
      <point x="545" y="251" type="line" smooth="yes"/>
      <point x="545" y="73"/>
      <point x="448" y="-11"/>
    </contour>
  </outline>
</glyph>
<glyph name="V" format="1">
  <advance width="600"/>
  <unicode hex="0056"/>
  <outline>
    <contour>
      <point x="214" y="0" type="line"/>
      <point x="28" y="700" type="line"/>
      <point x="215" y="700" type="line"/>
      <point x="254" y="498" type="line" smooth="yes"/>
      <point x="272" y="405"/>
      <point x="295" y="261"/>
      <point x="303" y="190" type="curve"/>
      <point x="311" y="261"/>
      <point x="335" y="406"/>
      <point x="352" y="498" type="curve" smooth="yes"/>
      <point x="390" y="700" type="line"/>
      <point x="572" y="700" type="line"/>
      <point x="386" y="0" type="line"/>
    </contour>
  </outline>
</glyph>
<glyph name="W" format="1">
  <advance width="600"/>
  <unicode hex="0057"/>
  <outline>
    <contour>
      <point x="95" y="0" type="line"/>
      <point x="5" y="700" type="line"/>
      <point x="158" y="700" type="line"/>
      <point x="172" y="565" type="line" smooth="yes"/>
      <point x="180" y="486"/>
      <point x="187" y="310"/>
      <point x="190" y="217" type="curve"/>
      <point x="196" y="309"/>
      <point x="208" y="485"/>
      <point x="217" y="564" type="curve" smooth="yes"/>
      <point x="233" y="700" type="line"/>
      <point x="366" y="700" type="line"/>
      <point x="383" y="564" type="line" smooth="yes"/>
      <point x="393" y="484"/>
      <point x="405" y="309"/>
      <point x="410" y="217" type="curve"/>
      <point x="414" y="309"/>
      <point x="422" y="485"/>
      <point x="429" y="565" type="curve" smooth="yes"/>
      <point x="441" y="700" type="line"/>
      <point x="595" y="700" type="line"/>
      <point x="505" y="0" type="line"/>
      <point x="346" y="0" type="line"/>
      <point x="331" y="129" type="line" smooth="yes"/>
      <point x="318" y="237"/>
      <point x="304" y="368"/>
      <point x="300" y="436" type="curve"/>
      <point x="296" y="368"/>
      <point x="283" y="237"/>
      <point x="269" y="129" type="curve" smooth="yes"/>
      <point x="252" y="0" type="line"/>
    </contour>
  </outline>
</glyph>
<glyph name="X" format="1">
  <advance width="600"/>
  <unicode hex="0058"/>
  <outline>
    <contour>
      <point x="28" y="0" type="line"/>
      <point x="203" y="356" type="line"/>
      <point x="34" y="700" type="line"/>
      <point x="227" y="700" type="line"/>
      <point x="253" y="639" type="line" smooth="yes"/>
      <point x="276" y="585"/>
      <point x="293" y="528"/>
      <point x="304" y="486" type="curve"/>
      <point x="315" y="528"/>
      <point x="332" y="585"/>
      <point x="355" y="639" type="curve" smooth="yes"/>
      <point x="381" y="700" type="line"/>
      <point x="565" y="700" type="line"/>
      <point x="396" y="360" type="line"/>
      <point x="572" y="0" type="line"/>
      <point x="379" y="0" type="line"/>
      <point x="348" y="77" type="line" smooth="yes"/>
      <point x="325" y="134"/>
      <point x="308" y="189"/>
      <point x="296" y="231" type="curve"/>
      <point x="285" y="189"/>
      <point x="267" y="133"/>
      <point x="244" y="77" type="curve" smooth="yes"/>
      <point x="212" y="0" type="line"/>
    </contour>
  </outline>
</glyph>
<glyph name="Y" format="1">
  <advance width="600"/>
  <unicode hex="0059"/>
  <outline>
    <contour>
      <point x="213" y="0" type="line"/>
      <point x="213" y="267" type="line"/>
      <point x="21" y="700" type="line"/>
      <point x="216" y="700" type="line"/>
      <point x="250" y="602" type="line" smooth="yes"/>
      <point x="277" y="525"/>
      <point x="295" y="450"/>
      <point x="304" y="396" type="curve"/>
      <point x="313" y="450"/>
      <point x="332" y="524"/>
      <point x="359" y="602" type="curve" smooth="yes"/>
      <point x="393" y="700" type="line"/>
      <point x="579" y="700" type="line"/>
      <point x="392" y="270" type="line"/>
      <point x="392" y="0" type="line"/>
    </contour>
  </outline>
</glyph>
<glyph name="Z" format="1">
  <advance width="600"/>
  <unicode hex="005A"/>
  <outline>
    <contour>
      <point x="64" y="0" type="line"/>
      <point x="64" y="130" type="line"/>
      <point x="231" y="402" type="line" smooth="yes"/>
      <point x="276" y="475"/>
      <point x="307" y="518"/>
      <point x="334" y="552" type="curve"/>
      <point x="292" y="551"/>
      <point x="235" y="550"/>
      <point x="174" y="550" type="curve" smooth="yes"/>
      <point x="80" y="550" type="line"/>
      <point x="80" y="700" type="line"/>
      <point x="531" y="700" type="line"/>
      <point x="531" y="570" type="line"/>
      <point x="364" y="299" type="line" smooth="yes"/>
      <point x="323" y="232"/>
      <point x="290" y="183"/>
      <point x="261" y="148" type="curve"/>
      <point x="304" y="149"/>
      <point x="360" y="150"/>
      <point x="421" y="150" type="curve" smooth="yes"/>
      <point x="532" y="150" type="line"/>
      <point x="532" y="0" type="line"/>
    </contour>
  </outline>
</glyph>
<glyph name="bracketleft" format="1">
  <advance width="600"/>
  <unicode hex="005B"/>
  <outline>
    <contour>
      <point x="154" y="-119" type="line"/>
      <point x="154" y="700" type="line"/>
      <point x="460" y="700" type="line"/>
      <point x="460" y="556" type="line"/>
      <point x="325" y="556" type="line"/>
      <point x="325" y="25" type="line"/>
      <point x="460" y="25" type="line"/>
      <point x="460" y="-119" type="line"/>
    </contour>
  </outline>
</glyph>
<glyph name="backslash" format="1">
  <advance width="600"/>
  <unicode hex="005C"/>
  <outline>
    <contour>
      <point x="418" y="-90" type="line"/>
      <point x="18" y="790" type="line"/>
      <point x="182" y="790" type="line"/>
      <point x="582" y="-90" type="line"/>
    </contour>
  </outline>
</glyph>
<glyph name="bracketright" format="1">
  <advance width="600"/>
  <unicode hex="005D"/>
  <outline>
    <contour>
      <point x="140" y="-119" type="line"/>
      <point x="140" y="25" type="line"/>
      <point x="275" y="25" type="line"/>
      <point x="275" y="556" type="line"/>
      <point x="140" y="556" type="line"/>
      <point x="140" y="700" type="line"/>
      <point x="446" y="700" type="line"/>
      <point x="446" y="-119" type="line"/>
    </contour>
  </outline>
</glyph>
<glyph name="asciicircum" format="1">
  <advance width="600"/>
  <unicode hex="005E"/>
  <outline>
    <contour>
      <point x="35" y="365" type="line"/>
      <point x="223" y="700" type="line"/>
      <point x="377" y="700" type="line"/>
      <point x="565" y="365" type="line"/>
      <point x="385" y="365" type="line"/>
      <point x="299" y="546" type="line"/>
      <point x="213" y="365" type="line"/>
    </contour>
  </outline>
</glyph>
<glyph name="grave" format="1">
  <advance width="600"/>
  <unicode hex="0060"/>
  <outline>
    <contour>
      <point x="298" y="595" type="line"/>
      <point x="141" y="755" type="line"/>
      <point x="354" y="755" type="line"/>
      <point x="426" y="595" type="line"/>
    </contour>
  </outline>
</glyph>
<glyph name="a" format="1">
  <advance width="600"/>
  <unicode hex="0061"/>
  <outline>
    <contour>
      <point x="226" y="-11" type="curve" smooth="yes"/>
      <point x="120" y="-11"/>
      <point x="47" y="53"/>
      <point x="47" y="171" type="curve" smooth="yes"/>
      <point x="47" y="283"/>
      <point x="131" y="341"/>
      <point x="245" y="341" type="curve" smooth="yes"/>
      <point x="295" y="341"/>
      <point x="327" y="332"/>
      <point x="358" y="318" type="curve"/>
      <point x="358" y="341" type="line" smooth="yes"/>
      <point x="358" y="389"/>
      <point x="331" y="405"/>
      <point x="280" y="405" type="curve" smooth="yes"/>
      <point x="223" y="405"/>
      <point x="180" y="395"/>
      <point x="128" y="368" type="curve"/>
      <point x="81" y="489" type="line"/>
      <point x="147" y="520"/>
      <point x="214" y="536"/>
      <point x="314" y="536" type="curve" smooth="yes"/>
      <point x="466" y="536"/>
      <point x="536" y="459"/>
      <point x="536" y="335" type="curve" smooth="yes"/>
      <point x="536" y="0" type="line"/>
      <point x="358" y="0" type="line"/>
      <point x="358" y="36" type="line"/>
      <point x="323" y="10"/>
      <point x="275" y="-11"/>
    </contour>
    <contour>
      <point x="277" y="119" type="curve" smooth="yes"/>
      <point x="309" y="119"/>
      <point x="340" y="132"/>
      <point x="358" y="147" type="curve"/>
      <point x="358" y="212" type="line"/>
      <point x="337" y="221"/>
      <point x="313" y="228"/>
      <point x="277" y="228" type="curve" smooth="yes"/>
      <point x="238" y="228"/>
      <point x="219" y="207"/>
      <point x="219" y="174" type="curve" smooth="yes"/>
      <point x="219" y="143"/>
      <point x="236" y="119"/>
    </contour>
  </outline>
</glyph>
<glyph name="c" format="1">
  <advance width="600"/>
  <unicode hex="0063"/>
  <outline>
    <contour>
      <point x="325" y="-11" type="curve" smooth="yes"/>
      <point x="162" y="-11"/>
      <point x="58" y="97"/>
      <point x="58" y="266" type="curve" smooth="yes"/>
      <point x="58" y="412"/>
      <point x="149" y="536"/>
      <point x="330" y="536" type="curve" smooth="yes"/>
      <point x="424" y="536"/>
      <point x="489" y="498"/>
      <point x="542" y="430" type="curve"/>
      <point x="419" y="328" type="line"/>
      <point x="392" y="369"/>
      <point x="372" y="392"/>
      <point x="325" y="392" type="curve" smooth="yes"/>
      <point x="271" y="392"/>
      <point x="239" y="333"/>
      <point x="239" y="261" type="curve" smooth="yes"/>
      <point x="239" y="184"/>
      <point x="271" y="133"/>
      <point x="331" y="133" type="curve" smooth="yes"/>
      <point x="373" y="133"/>
      <point x="404" y="158"/>
      <point x="438" y="201" type="curve"/>
      <point x="545" y="102" type="line"/>
      <point x="488" y="30"/>
      <point x="418" y="-11"/>
    </contour>
  </outline>
</glyph>
<glyph name="e" format="1">
  <advance width="600"/>
  <unicode hex="0065"/>
  <outline>
    <contour>
      <point x="310" y="-11" type="curve" smooth="yes"/>
      <point x="142" y="-11"/>
      <point x="48" y="104"/>
      <point x="48" y="263" type="curve" smooth="yes"/>
      <point x="48" y="444"/>
      <point x="161" y="536"/>
      <point x="303" y="536" type="curve" smooth="yes"/>
      <point x="454" y="536"/>
      <point x="547" y="440"/>
      <point x="547" y="243" type="curve" smooth="yes"/>
      <point x="547" y="226"/>
      <point x="547" y="216"/>
      <point x="546" y="209" type="curve"/>
      <point x="220" y="209" type="line"/>
      <point x="227" y="160"/>
      <point x="265" y="133"/>
      <point x="320" y="133" type="curve" smooth="yes"/>
      <point x="374" y="133"/>
      <point x="408" y="144"/>
      <point x="459" y="165" type="curve"/>
      <point x="522" y="42" type="line"/>
      <point x="456" y="8"/>
      <point x="399" y="-11"/>
    </contour>
    <contour>
      <point x="220" y="321" type="curve"/>
      <point x="385" y="321" type="line"/>
      <point x="377" y="371"/>
      <point x="360" y="400"/>
      <point x="299" y="400" type="curve" smooth="yes"/>
      <point x="252" y="400"/>
      <point x="227" y="368"/>
    </contour>
  </outline>
</glyph>
<glyph name="f" format="1">
  <advance width="600"/>
  <unicode hex="0066"/>
  <outline>
    <contour>
      <point x="191" y="0" type="line"/>
      <point x="191" y="380" type="line"/>
      <point x="109" y="380" type="line"/>
      <point x="109" y="525" type="line"/>
      <point x="191" y="525" type="line"/>
      <point x="191" y="542" type="line" smooth="yes"/>
      <point x="191" y="663"/>
      <point x="258" y="726"/>
      <point x="365" y="726" type="curve" smooth="yes"/>
      <point x="430" y="726"/>
      <point x="478" y="711"/>
      <point x="507" y="698" type="curve"/>
      <point x="507" y="574" type="line"/>
      <point x="489" y="581"/>
      <point x="463" y="588"/>
      <point x="428" y="588" type="curve" smooth="yes"/>
      <point x="389" y="588"/>
      <point x="364" y="575"/>
      <point x="364" y="539" type="curve" smooth="yes"/>
      <point x="364" y="525" type="line"/>
      <point x="488" y="525" type="line"/>
      <point x="488" y="380" type="line"/>
      <point x="369" y="380" type="line"/>
      <point x="369" y="0" type="line"/>
    </contour>
  </outline>
</glyph>
<glyph name="g" format="1">
  <advance width="600"/>
  <unicode hex="0067"/>
  <outline>
    <contour>
      <point x="257" y="-193" type="curve"/>
      <point x="189" y="-87" type="line"/>
      <point x="318" y="-66"/>
      <point x="354" y="-48"/>
      <point x="354" y="24" type="curve" smooth="yes"/>
      <point x="354" y="43" type="line"/>
      <point x="318" y="14"/>
      <point x="280" y="-6"/>
      <point x="224" y="-6" type="curve" smooth="yes"/>
      <point x="125" y="-6"/>
      <point x="46" y="65"/>
      <point x="46" y="261" type="curve" smooth="yes"/>
      <point x="46" y="449"/>
      <point x="120" y="536"/>
      <point x="233" y="536" type="curve" smooth="yes"/>
      <point x="287" y="536"/>
      <point x="325" y="512"/>
      <point x="354" y="490" type="curve"/>
      <point x="354" y="525" type="line"/>
      <point x="531" y="525" type="line"/>
      <point x="531" y="81" type="line" smooth="yes"/>
      <point x="531" y="-100"/>
      <point x="455" y="-165"/>
    </contour>
    <contour>
      <point x="288" y="138" type="curve" smooth="yes"/>
      <point x="314" y="138"/>
      <point x="336" y="149"/>
      <point x="354" y="164" type="curve"/>
      <point x="354" y="361" type="line"/>
      <point x="335" y="377"/>
      <point x="314" y="387"/>
      <point x="287" y="387" type="curve" smooth="yes"/>
      <point x="249" y="387"/>
      <point x="227" y="363"/>
      <point x="227" y="267" type="curve" smooth="yes"/>
      <point x="227" y="164"/>
      <point x="249" y="138"/>
    </contour>
  </outline>
</glyph>
<glyph name="h" format="1">
  <advance width="600"/>
  <unicode hex="0068"/>
  <outline>
    <contour>
      <point x="64" y="0" type="line"/>
      <point x="64" y="658" type="line"/>
      <point x="242" y="729" type="line"/>
      <point x="242" y="490" type="line"/>
      <point x="275" y="515"/>
      <point x="311" y="536"/>
      <point x="372" y="536" type="curve" smooth="yes"/>
      <point x="485" y="536"/>
      <point x="539" y="461"/>
      <point x="539" y="325" type="curve" smooth="yes"/>
      <point x="539" y="0" type="line"/>
      <point x="361" y="0" type="line"/>
      <point x="361" y="302" type="line" smooth="yes"/>
      <point x="361" y="368"/>
      <point x="338" y="386"/>
      <point x="302" y="386" type="curve" smooth="yes"/>
      <point x="266" y="386"/>
      <point x="242" y="369"/>
      <point x="242" y="307" type="curve" smooth="yes"/>
      <point x="242" y="0" type="line"/>
    </contour>
  </outline>
</glyph>
<glyph name="i" format="1">
  <advance width="600"/>
  <unicode hex="0069"/>
  <outline>
    <contour>
      <point x="279" y="577" type="curve" smooth="yes"/>
      <point x="213" y="577"/>
      <point x="174" y="617"/>
      <point x="174" y="669" type="curve" smooth="yes"/>
      <point x="174" y="720"/>
      <point x="213" y="759"/>
      <point x="279" y="759" type="curve" smooth="yes"/>
      <point x="345" y="759"/>
      <point x="384" y="720"/>
      <point x="384" y="669" type="curve" smooth="yes"/>
      <point x="384" y="617"/>
      <point x="345" y="577"/>
    </contour>
    <contour>
      <point x="358" y="-11" type="curve" smooth="yes"/>
      <point x="242" y="-11"/>
      <point x="189" y="51"/>
      <point x="189" y="167" type="curve" smooth="yes"/>
      <point x="189" y="525" type="line"/>
      <point x="369" y="525" type="line"/>
      <point x="369" y="199" type="line" smooth="yes"/>
      <point x="369" y="151"/>
      <point x="396" y="140"/>
      <point x="428" y="140" type="curve" smooth="yes"/>
      <point x="463" y="140"/>
      <point x="491" y="148"/>
      <point x="518" y="159" type="curve"/>
      <point x="491" y="17" type="line"/>
      <point x="451" y="0"/>
      <point x="407" y="-11"/>
    </contour>
  </outline>
</glyph>
<glyph name="j" format="1">
  <advance width="600"/>
  <unicode hex="006A"/>
  <outline>
    <contour>
      <point x="319" y="577" type="curve" smooth="yes"/>
      <point x="253" y="577"/>
      <point x="214" y="617"/>
      <point x="214" y="669" type="curve" smooth="yes"/>
      <point x="214" y="720"/>
      <point x="253" y="759"/>
      <point x="319" y="759" type="curve" smooth="yes"/>
      <point x="385" y="759"/>
      <point x="424" y="720"/>
      <point x="424" y="669" type="curve" smooth="yes"/>
      <point x="424" y="617"/>
      <point x="385" y="577"/>
    </contour>
    <contour>
      <point x="145" y="-193" type="curve"/>
      <point x="76" y="-71" type="line"/>
      <point x="193" y="-59"/>
      <point x="230" y="-22"/>
      <point x="230" y="75" type="curve" smooth="yes"/>
      <point x="230" y="525" type="line"/>
      <point x="410" y="525" type="line"/>
      <point x="410" y="83" type="line" smooth="yes"/>
      <point x="410" y="-96"/>
      <point x="332" y="-173"/>
    </contour>
  </outline>
</glyph>
<glyph name="k" format="1">
  <advance width="600"/>
  <unicode hex="006B"/>
  <outline>
    <contour>
      <point x="64" y="0" type="line"/>
      <point x="64" y="658" type="line"/>
      <point x="242" y="729" type="line"/>
      <point x="242" y="516" type="line" smooth="yes"/>
      <point x="242" y="471"/>
      <point x="239" y="370"/>
      <point x="238" y="338" type="curve"/>
      <point x="258" y="370"/>
      <point x="300" y="435"/>
      <point x="328" y="474" type="curve" smooth="yes"/>
      <point x="365" y="525" type="line"/>
      <point x="563" y="525" type="line"/>
      <point x="415" y="347" type="line"/>
      <point x="567" y="0" type="line"/>
      <point x="376" y="0" type="line"/>
      <point x="289" y="196" type="line"/>
      <point x="242" y="139" type="line"/>
      <point x="242" y="0" type="line"/>
    </contour>
  </outline>
</glyph>
<glyph name="m" format="1">
  <advance width="600"/>
  <unicode hex="006D"/>
  <outline>
    <contour>
      <point x="30" y="0" type="line"/>
      <point x="30" y="525" type="line"/>
      <point x="173" y="525" type="line"/>
      <point x="173" y="493" type="line"/>
      <point x="193" y="518"/>
      <point x="224" y="536"/>
      <point x="263" y="536" type="curve" smooth="yes"/>
      <point x="309" y="536"/>
      <point x="338" y="525"/>
      <point x="360" y="494" type="curve"/>
      <point x="390" y="522"/>
      <point x="418" y="536"/>
      <point x="461" y="536" type="curve" smooth="yes"/>
      <point x="529" y="536"/>
      <point x="573" y="499"/>
      <point x="573" y="394" type="curve" smooth="yes"/>
      <point x="573" y="0" type="line"/>
      <point x="430" y="0" type="line"/>
      <point x="430" y="359" type="line" smooth="yes"/>
      <point x="430" y="385"/>
      <point x="419" y="398"/>
      <point x="404" y="398" type="curve" smooth="yes"/>
      <point x="386" y="398"/>
      <point x="373" y="386"/>
      <point x="373" y="358" type="curve" smooth="yes"/>
      <point x="373" y="0" type="line"/>
      <point x="230" y="0" type="line"/>
      <point x="230" y="359" type="line" smooth="yes"/>
      <point x="230" y="385"/>
      <point x="219" y="398"/>
      <point x="203" y="398" type="curve" smooth="yes"/>
      <point x="185" y="398"/>
      <point x="173" y="386"/>
      <point x="173" y="358" type="curve" smooth="yes"/>
      <point x="173" y="0" type="line"/>
    </contour>
  </outline>
</glyph>
<glyph name="o" format="1">
  <advance width="600"/>
  <unicode hex="006F"/>
  <outline>
    <contour>
      <point x="300" y="-11" type="curve" smooth="yes"/>
      <point x="157" y="-11"/>
      <point x="44" y="82"/>
      <point x="44" y="263" type="curve" smooth="yes"/>
      <point x="44" y="447"/>
      <point x="157" y="536"/>
      <point x="299" y="536" type="curve" smooth="yes"/>
      <point x="442" y="536"/>
      <point x="556" y="446"/>
      <point x="556" y="263" type="curve" smooth="yes"/>
      <point x="556" y="82"/>
      <point x="442" y="-11"/>
    </contour>
    <contour>
      <point x="300" y="135" type="curve" smooth="yes"/>
      <point x="349" y="135"/>
      <point x="375" y="176"/>
      <point x="375" y="263" type="curve" smooth="yes"/>
      <point x="375" y="352"/>
      <point x="348" y="390"/>
      <point x="300" y="390" type="curve" smooth="yes"/>
      <point x="251" y="390"/>
      <point x="225" y="352"/>
      <point x="225" y="263" type="curve" smooth="yes"/>
      <point x="225" y="176"/>
      <point x="252" y="135"/>
    </contour>
  </outline>
</glyph>
<glyph name="q" format="1">
  <advance width="600"/>
  <unicode hex="0071"/>
  <outline>
    <contour>
      <point x="353" y="-193" type="line"/>
      <point x="353" y="40" type="line"/>
      <point x="319" y="10"/>
      <point x="283" y="-11"/>
      <point x="227" y="-11" type="curve" smooth="yes"/>
      <point x="128" y="-11"/>
      <point x="46" y="65"/>
      <point x="46" y="261" type="curve" smooth="yes"/>
      <point x="46" y="449"/>
      <point x="120" y="536"/>
      <point x="233" y="536" type="curve" smooth="yes"/>
      <point x="287" y="536"/>
      <point x="324" y="512"/>
      <point x="353" y="490" type="curve"/>
      <point x="353" y="525" type="line"/>
      <point x="531" y="525" type="line"/>
      <point x="531" y="-122" type="line"/>
    </contour>
    <contour>
      <point x="288" y="138" type="curve" smooth="yes"/>
      <point x="314" y="138"/>
      <point x="335" y="149"/>
      <point x="353" y="164" type="curve"/>
      <point x="353" y="361" type="line"/>
      <point x="334" y="377"/>
      <point x="314" y="387"/>
      <point x="287" y="387" type="curve" smooth="yes"/>
      <point x="249" y="387"/>
      <point x="227" y="363"/>
      <point x="227" y="267" type="curve" smooth="yes"/>
      <point x="227" y="164"/>
      <point x="249" y="138"/>
    </contour>
  </outline>
</glyph>
<glyph name="r" format="1">
  <advance width="600"/>
  <unicode hex="0072"/>
  <outline>
    <contour>
      <point x="102" y="0" type="line"/>
      <point x="102" y="525" type="line"/>
      <point x="280" y="525" type="line"/>
      <point x="280" y="479" type="line"/>
      <point x="318" y="516"/>
      <point x="360" y="536"/>
      <point x="413" y="536" type="curve" smooth="yes"/>
      <point x="461" y="536"/>
      <point x="499" y="523"/>
      <point x="522" y="506" type="curve"/>
      <point x="465" y="328" type="line"/>
      <point x="436" y="357"/>
      <point x="409" y="373"/>
      <point x="361" y="373" type="curve" smooth="yes"/>
      <point x="318" y="373"/>
      <point x="280" y="348"/>
      <point x="280" y="285" type="curve" smooth="yes"/>
      <point x="280" y="0" type="line"/>
    </contour>
  </outline>
</glyph>
<glyph name="s" format="1">
  <advance width="600"/>
  <unicode hex="0073"/>
  <outline>
    <contour>
      <point x="315" y="-11" type="curve" smooth="yes"/>
      <point x="225" y="-11"/>
      <point x="140" y="8"/>
      <point x="70" y="41" type="curve"/>
      <point x="112" y="176" type="line"/>
      <point x="177" y="146"/>
      <point x="263" y="124"/>
      <point x="320" y="124" type="curve" smooth="yes"/>
      <point x="355" y="124"/>
      <point x="368" y="133"/>
      <point x="368" y="148" type="curve" smooth="yes"/>
      <point x="368" y="164"/>
      <point x="361" y="170"/>
      <point x="308" y="184" type="curve" smooth="yes"/>
      <point x="169" y="221"/>
      <point x="78" y="255"/>
      <point x="78" y="364" type="curve" smooth="yes"/>
      <point x="78" y="472"/>
      <point x="148" y="536"/>
      <point x="293" y="536" type="curve" smooth="yes"/>
      <point x="386" y="536"/>
      <point x="448" y="518"/>
      <point x="518" y="487" type="curve"/>
      <point x="477" y="353" type="line"/>
      <point x="408" y="386"/>
      <point x="346" y="401"/>
      <point x="286" y="401" type="curve" smooth="yes"/>
      <point x="251" y="401"/>
      <point x="242" y="395"/>
      <point x="242" y="379" type="curve" smooth="yes"/>
      <point x="242" y="364"/>
      <point x="253" y="357"/>
      <point x="306" y="342" type="curve" smooth="yes"/>
      <point x="449" y="303"/>
      <point x="532" y="274"/>
      <point x="532" y="166" type="curve" smooth="yes"/>
      <point x="532" y="45"/>
      <point x="459" y="-11"/>
    </contour>
  </outline>
</glyph>
<glyph name="t" format="1">
  <advance width="600"/>
  <unicode hex="0074"/>
  <outline>
    <contour>
      <point x="335" y="-11" type="curve" smooth="yes"/>
      <point x="226" y="-11"/>
      <point x="177" y="53"/>
      <point x="177" y="169" type="curve" smooth="yes"/>
      <point x="177" y="380" type="line"/>
      <point x="72" y="380" type="line"/>
      <point x="72" y="525" type="line"/>
      <point x="177" y="525" type="line"/>
      <point x="177" y="658" type="line"/>
      <point x="353" y="729" type="line"/>
      <point x="353" y="525" type="line"/>
      <point x="500" y="525" type="line"/>
      <point x="500" y="380" type="line"/>
      <point x="353" y="380" type="line"/>
      <point x="353" y="199" type="line" smooth="yes"/>
      <point x="353" y="151"/>
      <point x="376" y="138"/>
      <point x="408" y="138" type="curve" smooth="yes"/>
      <point x="446" y="138"/>
      <point x="473" y="153"/>
      <point x="503" y="170" type="curve"/>
      <point x="474" y="24" type="line"/>
      <point x="434" y="3"/>
      <point x="397" y="-11"/>
    </contour>
  </outline>
</glyph>
<glyph name="u" format="1">
  <advance width="600"/>
  <unicode hex="0075"/>
  <outline>
    <contour>
      <point x="228" y="-11" type="curve" smooth="yes"/>
      <point x="115" y="-11"/>
      <point x="61" y="64"/>
      <point x="61" y="200" type="curve" smooth="yes"/>
      <point x="61" y="525" type="line"/>
      <point x="239" y="525" type="line"/>
      <point x="239" y="223" type="line" smooth="yes"/>
      <point x="239" y="157"/>
      <point x="262" y="139"/>
      <point x="298" y="139" type="curve" smooth="yes"/>
      <point x="334" y="139"/>
      <point x="358" y="156"/>
      <point x="358" y="218" type="curve" smooth="yes"/>
      <point x="358" y="525" type="line"/>
      <point x="536" y="525" type="line"/>
      <point x="536" y="0" type="line"/>
      <point x="358" y="0" type="line"/>
      <point x="358" y="35" type="line"/>
      <point x="325" y="10"/>
      <point x="289" y="-11"/>
    </contour>
  </outline>
</glyph>
<glyph name="v" format="1">
  <advance width="600"/>
  <unicode hex="0076"/>
  <outline>
    <contour>
      <point x="211" y="0" type="line"/>
      <point x="25" y="525" type="line"/>
      <point x="219" y="525" type="line"/>
      <point x="267" y="325" type="line" smooth="yes"/>
      <point x="277" y="282"/>
      <point x="294" y="197"/>
      <point x="301" y="148" type="curve"/>
      <point x="310" y="197"/>
      <point x="326" y="282"/>
      <point x="337" y="325" type="curve" smooth="yes"/>
      <point x="386" y="525" type="line"/>
      <point x="575" y="525" type="line"/>
      <point x="389" y="0" type="line"/>
    </contour>
  </outline>
</glyph>
<glyph name="w" format="1">
  <advance width="600"/>
  <unicode hex="0077"/>
  <outline>
    <contour>
      <point x="104" y="0" type="line"/>
      <point x="8" y="525" type="line"/>
      <point x="159" y="525" type="line"/>
      <point x="168" y="452" type="line" smooth="yes"/>
      <point x="176" y="386"/>
      <point x="185" y="256"/>
      <point x="191" y="169" type="curve"/>
      <point x="200" y="253"/>
      <point x="211" y="374"/>
      <point x="224" y="452" type="curve" smooth="yes"/>
      <point x="236" y="525" type="line"/>
      <point x="366" y="525" type="line"/>
      <point x="378" y="452" type="line" smooth="yes"/>
      <point x="391" y="374"/>
      <point x="406" y="230"/>
      <point x="411" y="169" type="curve"/>
      <point x="416" y="239"/>
      <point x="426" y="383"/>
      <point x="434" y="452" type="curve" smooth="yes"/>
      <point x="442" y="525" type="line"/>
      <point x="592" y="525" type="line"/>
      <point x="496" y="0" type="line"/>
      <point x="341" y="0" type="line"/>
      <point x="328" y="85" type="line" smooth="yes"/>
      <point x="313" y="183"/>
      <point x="305" y="298"/>
      <point x="299" y="368" type="curve"/>
      <point x="294" y="298"/>
      <point x="285" y="182"/>
      <point x="270" y="84" type="curve" smooth="yes"/>
      <point x="257" y="0" type="line"/>
    </contour>
  </outline>
</glyph>
<glyph name="x" format="1">
  <advance width="600"/>
  <unicode hex="0078"/>
  <outline>
    <contour>
      <point x="30" y="0" type="line"/>
      <point x="206" y="274" type="line"/>
      <point x="46" y="525" type="line"/>
      <point x="243" y="525" type="line"/>
      <point x="249" y="513" type="line" smooth="yes"/>
      <point x="269" y="473"/>
      <point x="289" y="426"/>
      <point x="304" y="391" type="curve"/>
      <point x="319" y="426"/>
      <point x="339" y="470"/>
      <point x="361" y="513" type="curve" smooth="yes"/>
      <point x="367" y="525" type="line"/>
      <point x="555" y="525" type="line"/>
      <point x="393" y="282" type="line"/>
      <point x="571" y="0" type="line"/>
      <point x="373" y="0" type="line"/>
      <point x="347" y="48" type="line" smooth="yes"/>
      <point x="327" y="86"/>
      <point x="313" y="123"/>
      <point x="296" y="163" type="curve"/>
      <point x="280" y="123"/>
      <point x="266" y="86"/>
      <point x="245" y="48" type="curve" smooth="yes"/>
      <point x="218" y="0" type="line"/>
    </contour>
  </outline>
</glyph>
<glyph name="y" format="1">
  <advance width="600"/>
  <unicode hex="0079"/>
  <outline>
    <contour>
      <point x="153" y="-185" type="line"/>
      <point x="221" y="-13" type="line"/>
      <point x="25" y="525" type="line"/>
      <point x="219" y="525" type="line"/>
      <point x="268" y="330" type="line" smooth="yes"/>
      <point x="280" y="281"/>
      <point x="296" y="202"/>
      <point x="303" y="153" type="curve"/>
      <point x="312" y="202"/>
      <point x="327" y="286"/>
      <point x="337" y="325" type="curve" smooth="yes"/>
      <point x="386" y="525" type="line"/>
      <point x="575" y="525" type="line"/>
      <point x="324" y="-185" type="line"/>
    </contour>
  </outline>
</glyph>
<glyph name="z" format="1">
  <advance width="600"/>
  <unicode hex="007A"/>
  <outline>
    <contour>
      <point x="69" y="0" type="line"/>
      <point x="69" y="126" type="line"/>
      <point x="180" y="247" type="line" smooth="yes"/>
      <point x="248" y="321"/>
      <point x="286" y="354"/>
      <point x="317" y="381" type="curve"/>
      <point x="282" y="379"/>
      <point x="221" y="377"/>
      <point x="176" y="377" type="curve" smooth="yes"/>
      <point x="81" y="377" type="line"/>
      <point x="81" y="525" type="line"/>
      <point x="526" y="525" type="line"/>
      <point x="526" y="399" type="line"/>
      <point x="417" y="278" type="line" smooth="yes"/>
      <point x="361" y="216"/>
      <point x="309" y="171"/>
      <point x="278" y="144" type="curve"/>
      <point x="313" y="146"/>
      <point x="362" y="148"/>
      <point x="412" y="148" type="curve" smooth="yes"/>
      <point x="526" y="148" type="line"/>
      <point x="526" y="0" type="line"/>
    </contour>
  </outline>
</glyph>
<glyph name="braceleft" format="1">
  <advance width="600"/>
  <unicode hex="007B"/>
  <outline>
    <contour>
      <point x="489" y="-112" type="line"/>
      <point x="253" y="-112"/>
      <point x="184" y="-31"/>
      <point x="184" y="108" type="curve" smooth="yes"/>
      <point x="184" y="166" type="line" smooth="yes"/>
      <point x="184" y="207"/>
      <point x="159" y="216"/>
      <point x="122" y="216" type="curve" smooth="yes"/>
      <point x="90" y="216" type="line"/>
      <point x="90" y="379" type="line"/>
      <point x="122" y="379" type="line" smooth="yes"/>
      <point x="159" y="379"/>
      <point x="184" y="388"/>
      <point x="184" y="429" type="curve" smooth="yes"/>
      <point x="184" y="483" type="line" smooth="yes"/>
      <point x="184" y="622"/>
      <point x="253" y="703"/>
      <point x="489" y="703" type="curve"/>
      <point x="489" y="563" type="line"/>
      <point x="384" y="557"/>
      <point x="355" y="544"/>
      <point x="355" y="455" type="curve" smooth="yes"/>
      <point x="355" y="441" type="line" smooth="yes"/>
      <point x="355" y="343"/>
      <point x="317" y="312"/>
      <point x="233" y="298" type="curve"/>
      <point x="317" y="285"/>
      <point x="355" y="252"/>
      <point x="355" y="154" type="curve" smooth="yes"/>
      <point x="355" y="136" type="line" smooth="yes"/>
      <point x="355" y="47"/>
      <point x="384" y="34"/>
      <point x="489" y="28" type="curve"/>
    </contour>
  </outline>
</glyph>
<glyph name="braceright" format="1">
  <advance width="600"/>
  <unicode hex="007D"/>
  <outline>
    <contour>
      <point x="111" y="-112" type="curve"/>
      <point x="111" y="28" type="line"/>
      <point x="216" y="34"/>
      <point x="245" y="47"/>
      <point x="245" y="136" type="curve" smooth="yes"/>
      <point x="245" y="154" type="line" smooth="yes"/>
      <point x="245" y="252"/>
      <point x="283" y="285"/>
      <point x="367" y="298" type="curve"/>
      <point x="283" y="312"/>
      <point x="245" y="343"/>
      <point x="245" y="441" type="curve" smooth="yes"/>
      <point x="245" y="455" type="line" smooth="yes"/>
      <point x="245" y="544"/>
      <point x="216" y="557"/>
      <point x="111" y="563" type="curve"/>
      <point x="111" y="703" type="line"/>
      <point x="347" y="703"/>
      <point x="416" y="622"/>
      <point x="416" y="483" type="curve" smooth="yes"/>
      <point x="416" y="429" type="line" smooth="yes"/>
      <point x="416" y="388"/>
      <point x="441" y="379"/>
      <point x="478" y="379" type="curve" smooth="yes"/>
      <point x="510" y="379" type="line"/>
      <point x="510" y="216" type="line"/>
      <point x="478" y="216" type="line" smooth="yes"/>
      <point x="441" y="216"/>
      <point x="416" y="207"/>
      <point x="416" y="166" type="curve" smooth="yes"/>
      <point x="416" y="108" type="line" smooth="yes"/>
      <point x="416" y="-31"/>
      <point x="347" y="-112"/>
    </contour>
  </outline>
</glyph>
<glyph name="asciitilde" format="1">
  <advance width="600"/>
  <unicode hex="007E"/>
  <outline>
    <contour>
      <point x="163" y="257" type="curve"/>
      <point x="54" y="305" type="line"/>
      <point x="107" y="434"/>
      <point x="149" y="480"/>
      <point x="213" y="480" type="curve" smooth="yes"/>
      <point x="254" y="480"/>
      <point x="266" y="470"/>
      <point x="303" y="448" type="curve" smooth="yes"/>
      <point x="348" y="421"/>
      <point x="363" y="413"/>
      <point x="376" y="413" type="curve" smooth="yes"/>
      <point x="396" y="413"/>
      <point x="404" y="421"/>
      <point x="437" y="485" type="curve"/>
      <point x="546" y="437" type="line"/>
      <point x="493" y="308"/>
      <point x="451" y="262"/>
      <point x="387" y="262" type="curve" smooth="yes"/>
      <point x="346" y="262"/>
      <point x="334" y="272"/>
      <point x="297" y="294" type="curve" smooth="yes"/>
      <point x="252" y="321"/>
      <point x="237" y="329"/>
      <point x="224" y="329" type="curve" smooth="yes"/>
      <point x="204" y="329"/>
      <point x="196" y="321"/>
    </contour>
  </outline>
</glyph>
<glyph name="exclamdown" format="1">
  <advance width="600"/>
  <unicode hex="00A1"/>
  <outline>
    <contour>
      <point x="300" y="514" type="curve" smooth="yes"/>
      <point x="242" y="514"/>
      <point x="201" y="555"/>
      <point x="201" y="611" type="curve" smooth="yes"/>
      <point x="201" y="668"/>
      <point x="242" y="711"/>
      <point x="300" y="711" type="curve" smooth="yes"/>
      <point x="358" y="711"/>
      <point x="400" y="668"/>
      <point x="400" y="611" type="curve" smooth="yes"/>
      <point x="400" y="555"/>
      <point x="358" y="514"/>
    </contour>
    <contour>
      <point x="204" y="0" type="line"/>
      <point x="204" y="211" type="line"/>
      <point x="238" y="455" type="line"/>
      <point x="362" y="455" type="line"/>
      <point x="396" y="211" type="line"/>
      <point x="396" y="0" type="line"/>
    </contour>
  </outline>
</glyph>
<glyph name="cent" format="1">
  <advance width="600"/>
  <unicode hex="00A2"/>
  <outline>
    <contour>
      <point x="224" y="612" type="curve"/>
      <point x="224" y="711" type="line"/>
      <point x="404" y="711" type="line"/>
      <point x="404" y="620" type="line"/>
      <point x="460" y="605"/>
      <point x="504" y="572"/>
      <point x="542" y="523" type="curve"/>
      <point x="419" y="421" type="line"/>
      <point x="392" y="462"/>
      <point x="372" y="485"/>
      <point x="325" y="485" type="curve" smooth="yes"/>
      <point x="271" y="485"/>
      <point x="239" y="426"/>
      <point x="239" y="354" type="curve" smooth="yes"/>
      <point x="239" y="277"/>
      <point x="271" y="226"/>
      <point x="331" y="226" type="curve" smooth="yes"/>
      <point x="373" y="226"/>
      <point x="404" y="251"/>
      <point x="438" y="294" type="curve"/>
      <point x="545" y="195" type="line"/>
      <point x="505" y="145"/>
      <point x="460" y="110"/>
      <point x="404" y="93" type="curve"/>
      <point x="404" y="-11" type="line"/>
      <point x="224" y="-11" type="line"/>
      <point x="224" y="98" type="line"/>
      <point x="120" y="134"/>
      <point x="58" y="228"/>
      <point x="58" y="359" type="curve" smooth="yes"/>
      <point x="58" y="473"/>
      <point x="113" y="574"/>
    </contour>
  </outline>
</glyph>
<glyph name="sterling" format="1">
  <advance width="600"/>
  <unicode hex="00A3"/>
  <outline>
    <contour>
      <point x="71" y="0" type="line"/>
      <point x="71" y="118" type="line"/>
      <point x="108" y="150"/>
      <point x="143" y="187"/>
      <point x="154" y="256" type="curve"/>
      <point x="73" y="256" type="line"/>
      <point x="73" y="390" type="line"/>
      <point x="138" y="390" type="line"/>
      <point x="118" y="436"/>
      <point x="89" y="471"/>
      <point x="89" y="532" type="curve" smooth="yes"/>
      <point x="89" y="637"/>
      <point x="164" y="711"/>
      <point x="325" y="711" type="curve" smooth="yes"/>
      <point x="420" y="711"/>
      <point x="499" y="675"/>
      <point x="555" y="611" type="curve"/>
      <point x="450" y="503" type="line"/>
      <point x="410" y="550"/>
      <point x="377" y="570"/>
      <point x="323" y="570" type="curve" smooth="yes"/>
      <point x="275" y="570"/>
      <point x="262" y="550"/>
      <point x="262" y="516" type="curve" smooth="yes"/>
      <point x="262" y="470"/>
      <point x="288" y="442"/>
      <point x="304" y="390" type="curve"/>
      <point x="435" y="390" type="line"/>
      <point x="435" y="256" type="line"/>
      <point x="313" y="256" type="line"/>
      <point x="308" y="219"/>
      <point x="295" y="181"/>
      <point x="266" y="145" type="curve"/>
      <point x="541" y="145" type="line"/>
      <point x="541" y="0" type="line"/>
    </contour>
  </outline>
</glyph>
<glyph name="yen" format="1">
  <advance width="600"/>
  <unicode hex="00A5"/>
  <outline>
    <contour>
      <point x="210" y="0" type="line"/>
      <point x="210" y="99" type="line"/>
      <point x="90" y="99" type="line"/>
      <point x="90" y="233" type="line"/>
      <point x="210" y="233" type="line"/>
      <point x="210" y="267" type="line"/>
      <point x="26" y="700" type="line"/>
      <point x="221" y="700" type="line"/>
      <point x="253" y="602" type="line" smooth="yes"/>
      <point x="279" y="522"/>
      <point x="295" y="450"/>
      <point x="304" y="396" type="curve"/>
      <point x="313" y="450"/>
      <point x="330" y="523"/>
      <point x="356" y="602" type="curve" smooth="yes"/>
      <point x="388" y="700" type="line"/>
      <point x="574" y="700" type="line"/>
      <point x="389" y="270" type="line"/>
      <point x="389" y="233" type="line"/>
      <point x="510" y="233" type="line"/>
      <point x="510" y="99" type="line"/>
      <point x="389" y="99" type="line"/>
      <point x="389" y="0" type="line"/>
    </contour>
  </outline>
</glyph>
<glyph name="section" format="1">
  <advance width="600"/>
  <unicode hex="00A7"/>
  <outline>
    <contour>
      <point x="297" y="-164" type="curve" smooth="yes"/>
      <point x="205" y="-164"/>
      <point x="134" y="-118"/>
      <point x="87" y="-51" type="curve"/>
      <point x="184" y="38" type="line"/>
      <point x="217" y="-7"/>
      <point x="256" y="-33"/>
      <point x="303" y="-33" type="curve" smooth="yes"/>
      <point x="335" y="-33"/>
      <point x="344" y="-19"/>
      <point x="344" y="2" type="curve" smooth="yes"/>
      <point x="344" y="26"/>
      <point x="334" y="47"/>
      <point x="271" y="72" type="curve" smooth="yes"/>
      <point x="114" y="134"/>
      <point x="53" y="179"/>
      <point x="53" y="287" type="curve" smooth="yes"/>
      <point x="53" y="356"/>
      <point x="85" y="401"/>
      <point x="132" y="442" type="curve"/>
      <point x="116" y="469"/>
      <point x="107" y="500"/>
      <point x="107" y="539" type="curve" smooth="yes"/>
      <point x="107" y="633"/>
      <point x="168" y="711"/>
      <point x="303" y="711" type="curve" smooth="yes"/>
      <point x="394" y="711"/>
      <point x="467" y="668"/>
      <point x="510" y="598" type="curve"/>
      <point x="415" y="509" type="line"/>
      <point x="383" y="554"/>
      <point x="344" y="580"/>
      <point x="297" y="580" type="curve" smooth="yes"/>
      <point x="264" y="580"/>
      <point x="256" y="566"/>
      <point x="256" y="545" type="curve" smooth="yes"/>
      <point x="256" y="521"/>
      <point x="266" y="500"/>
      <point x="328" y="475" type="curve" smooth="yes"/>
      <point x="491" y="410"/>
      <point x="546" y="372"/>
      <point x="546" y="260" type="curve" smooth="yes"/>
      <point x="546" y="191"/>
      <point x="515" y="146"/>
      <point x="467" y="105" type="curve"/>
      <point x="483" y="78"/>
      <point x="493" y="47"/>
      <point x="493" y="8" type="curve" smooth="yes"/>
      <point x="493" y="-86"/>
      <point x="431" y="-164"/>
    </contour>
    <contour>
      <point x="373" y="183" type="curve"/>
      <point x="389" y="201"/>
      <point x="397" y="223"/>
      <point x="397" y="249" type="curve" smooth="yes"/>
      <point x="397" y="287"/>
      <point x="374" y="305"/>
      <point x="283" y="341" type="curve" smooth="yes"/>
      <point x="257" y="351"/>
      <point x="240" y="356"/>
      <point x="222" y="367" type="curve"/>
      <point x="205" y="348"/>
      <point x="197" y="330"/>
      <point x="197" y="300" type="curve" smooth="yes"/>
      <point x="197" y="262"/>
      <point x="228" y="241"/>
      <point x="317" y="206" type="curve" smooth="yes"/>
      <point x="339" y="197"/>
      <point x="355" y="192"/>
    </contour>
  </outline>
</glyph>
<glyph name="dieresis" format="1">
  <advance width="600"/>
  <unicode hex="00A8"/>
  <outline>
    <contour>
      <point x="420" y="600" type="curve" smooth="yes"/>
      <point x="372" y="600"/>
      <point x="330" y="640"/>
      <point x="330" y="686" type="curve" smooth="yes"/>
      <point x="330" y="735"/>
      <point x="372" y="774"/>
      <point x="420" y="774" type="curve" smooth="yes"/>
      <point x="466" y="774"/>
      <point x="508" y="735"/>
      <point x="508" y="686" type="curve" smooth="yes"/>
      <point x="508" y="640"/>
      <point x="466" y="600"/>
    </contour>
    <contour>
      <point x="181" y="600" type="curve" smooth="yes"/>
      <point x="134" y="600"/>
      <point x="92" y="640"/>
      <point x="92" y="686" type="curve" smooth="yes"/>
      <point x="92" y="735"/>
      <point x="134" y="774"/>
      <point x="181" y="774" type="curve" smooth="yes"/>
      <point x="228" y="774"/>
      <point x="270" y="735"/>
      <point x="270" y="686" type="curve" smooth="yes"/>
      <point x="270" y="640"/>
      <point x="228" y="600"/>
    </contour>
  </outline>
</glyph>
<glyph name="copyright" format="1">
  <advance width="600"/>
  <unicode hex="00A9"/>
  <outline>
    <contour>
      <point x="299" y="-11" type="curve" smooth="yes"/>
      <point x="131" y="-11"/>
      <point x="25" y="139"/>
      <point x="25" y="350" type="curve" smooth="yes"/>
      <point x="25" y="561"/>
      <point x="131" y="711"/>
      <point x="299" y="711" type="curve" smooth="yes"/>
      <point x="469" y="711"/>
      <point x="575" y="561"/>
      <point x="575" y="350" type="curve" smooth="yes"/>
      <point x="575" y="139"/>
      <point x="469" y="-11"/>
    </contour>
    <contour>
      <point x="299" y="50" type="curve" smooth="yes"/>
      <point x="434" y="50"/>
      <point x="508" y="174"/>
      <point x="508" y="350" type="curve" smooth="yes"/>
      <point x="508" y="526"/>
      <point x="434" y="650"/>
      <point x="299" y="650" type="curve" smooth="yes"/>
      <point x="165" y="650"/>
      <point x="92" y="526"/>
      <point x="92" y="350" type="curve" smooth="yes"/>
      <point x="92" y="174"/>
      <point x="165" y="50"/>
    </contour>
    <contour>
      <point x="300" y="149" type="curve" smooth="yes"/>
      <point x="212" y="149"/>
      <point x="169" y="215"/>
      <point x="169" y="352" type="curve" smooth="yes"/>
      <point x="169" y="492"/>
      <point x="217" y="557"/>
      <point x="300" y="557" type="curve" smooth="yes"/>
      <point x="381" y="557"/>
      <point x="407" y="508"/>
      <point x="421" y="431" type="curve"/>
      <point x="335" y="410" type="line"/>
      <point x="327" y="460"/>
      <point x="323" y="479"/>
      <point x="300" y="479" type="curve" smooth="yes"/>
      <point x="272" y="479"/>
      <point x="263" y="450"/>
      <point x="263" y="353" type="curve" smooth="yes"/>
      <point x="263" y="255"/>
      <point x="273" y="226"/>
      <point x="301" y="226" type="curve" smooth="yes"/>
      <point x="321" y="226"/>
      <point x="330" y="240"/>
      <point x="340" y="294" type="curve"/>
      <point x="422" y="267" type="line"/>
      <point x="406" y="191"/>
      <point x="375" y="149"/>
    </contour>
  </outline>
</glyph>
<glyph name="ordfeminine" format="1">
  <advance width="600"/>
  <unicode hex="00AA"/>
  <outline>
    <contour>
      <point x="237" y="223" type="curve" smooth="yes"/>
      <point x="145" y="223"/>
      <point x="85" y="279"/>
      <point x="85" y="384" type="curve" smooth="yes"/>
      <point x="85" y="485"/>
      <point x="154" y="535"/>
      <point x="253" y="535" type="curve" smooth="yes"/>
      <point x="298" y="535"/>
      <point x="329" y="526"/>
      <point x="355" y="515" type="curve"/>
      <point x="355" y="542" type="line" smooth="yes"/>
      <point x="355" y="583"/>
      <point x="331" y="596"/>
      <point x="284" y="596" type="curve" smooth="yes"/>
      <point x="236" y="596"/>
      <point x="200" y="587"/>
      <point x="154" y="562" type="curve"/>
      <point x="112" y="668" type="line"/>
      <point x="169" y="695"/>
      <point x="232" y="711"/>
      <point x="314" y="711" type="curve" smooth="yes"/>
      <point x="445" y="711"/>
      <point x="502" y="645"/>
      <point x="502" y="537" type="curve" smooth="yes"/>
      <point x="502" y="232" type="line"/>
      <point x="355" y="232" type="line"/>
      <point x="355" y="266" type="line"/>
      <point x="325" y="242"/>
      <point x="279" y="223"/>
    </contour>
    <contour>
      <point x="282" y="333" type="curve" smooth="yes"/>
      <point x="312" y="333"/>
      <point x="341" y="344"/>
      <point x="355" y="356" type="curve"/>
      <point x="355" y="425" type="line"/>
      <point x="336" y="433"/>
      <point x="317" y="439"/>
      <point x="282" y="439" type="curve" smooth="yes"/>
      <point x="249" y="439"/>
      <point x="227" y="419"/>
      <point x="227" y="387" type="curve" smooth="yes"/>
      <point x="227" y="357"/>
      <point x="246" y="333"/>
    </contour>
  </outline>
</glyph>
<glyph name="guillemotleft" format="1">
  <advance width="600"/>
  <unicode hex="00AB"/>
  <outline>
    <contour>
      <point x="395" y="0" type="line"/>
      <point x="280" y="262" type="line"/>
      <point x="395" y="525" type="line"/>
      <point x="566" y="525" type="line"/>
      <point x="451" y="263" type="line"/>
      <point x="566" y="0" type="line"/>
    </contour>
    <contour>
      <point x="136" y="0" type="line"/>
      <point x="22" y="262" type="line"/>
      <point x="136" y="525" type="line"/>
      <point x="307" y="525" type="line"/>
      <point x="193" y="263" type="line"/>
      <point x="307" y="0" type="line"/>
    </contour>
  </outline>
</glyph>
<glyph name="degree" format="1">
  <advance width="600"/>
  <unicode hex="00B0"/>
  <outline>
    <contour>
      <point x="300" y="275" type="curve" smooth="yes"/>
      <point x="178" y="275"/>
      <point x="82" y="366"/>
      <point x="82" y="494" type="curve" smooth="yes"/>
      <point x="82" y="619"/>
      <point x="178" y="711"/>
      <point x="300" y="711" type="curve" smooth="yes"/>
      <point x="423" y="711"/>
      <point x="518" y="619"/>
      <point x="518" y="494" type="curve" smooth="yes"/>
      <point x="518" y="366"/>
      <point x="423" y="275"/>
    </contour>
    <contour>
      <point x="300" y="396" type="curve" smooth="yes"/>
      <point x="353" y="396"/>
      <point x="390" y="432"/>
      <point x="390" y="494" type="curve" smooth="yes"/>
      <point x="390" y="553"/>
      <point x="353" y="590"/>
      <point x="300" y="590" type="curve" smooth="yes"/>
      <point x="248" y="590"/>
      <point x="210" y="553"/>
      <point x="210" y="494" type="curve" smooth="yes"/>
      <point x="210" y="432"/>
      <point x="248" y="396"/>
    </contour>
  </outline>
</glyph>
<glyph name="paragraph" format="1">
  <advance width="600"/>
  <unicode hex="00B6"/>
  <outline>
    <contour>
      <point x="255" y="-185" type="line"/>
      <point x="255" y="289" type="line"/>
      <point x="232" y="289" type="line" smooth="yes"/>
      <point x="124" y="289"/>
      <point x="39" y="361"/>
      <point x="39" y="495" type="curve" smooth="yes"/>
      <point x="39" y="630"/>
      <point x="130" y="700"/>
      <point x="238" y="700" type="curve" smooth="yes"/>
      <point x="534" y="700" type="line"/>
      <point x="534" y="-185" type="line"/>
      <point x="421" y="-185" type="line"/>
      <point x="421" y="602" type="line"/>
      <point x="368" y="602" type="line"/>
      <point x="368" y="-185" type="line"/>
    </contour>
  </outline>
</glyph>
<glyph name="periodcentered" format="1">
  <advance width="600"/>
  <unicode hex="00B7"/>
  <outline>
    <contour>
      <point x="299" y="233" type="curve" smooth="yes"/>
      <point x="223" y="233"/>
      <point x="166" y="290"/>
      <point x="166" y="367" type="curve" smooth="yes"/>
      <point x="166" y="443"/>
      <point x="223" y="498"/>
      <point x="299" y="498" type="curve" smooth="yes"/>
      <point x="375" y="498"/>
      <point x="433" y="443"/>
      <point x="433" y="367" type="curve" smooth="yes"/>
      <point x="433" y="290"/>
      <point x="375" y="233"/>
    </contour>
  </outline>
</glyph>
<glyph name="cedilla" format="1">
  <advance width="600"/>
  <unicode hex="00B8"/>
  <outline>
    <contour>
      <point x="309" y="-193" type="curve" smooth="yes"/>
      <point x="252" y="-193"/>
      <point x="203" y="-177"/>
      <point x="162" y="-157" type="curve"/>
      <point x="181" y="-111" type="line"/>
      <point x="218" y="-128"/>
      <point x="253" y="-135"/>
      <point x="282" y="-135" type="curve" smooth="yes"/>
      <point x="310" y="-135"/>
      <point x="328" y="-126"/>
      <point x="328" y="-108" type="curve" smooth="yes"/>
      <point x="328" y="-93"/>
      <point x="319" y="-85"/>
      <point x="306" y="-85" type="curve" smooth="yes"/>
      <point x="291" y="-85"/>
      <point x="281" y="-91"/>
      <point x="269" y="-99" type="curve"/>
      <point x="231" y="-73" type="line"/>
      <point x="251" y="0" type="line"/>
      <point x="312" y="0" type="line"/>
      <point x="300" y="-42" type="line"/>
      <point x="310" y="-37"/>
      <point x="326" y="-33"/>
      <point x="342" y="-33" type="curve" smooth="yes"/>
      <point x="392" y="-33"/>
      <point x="420" y="-62"/>
      <point x="420" y="-106" type="curve" smooth="yes"/>
      <point x="420" y="-160"/>
      <point x="381" y="-193"/>
    </contour>
  </outline>
</glyph>
<glyph name="ordmasculine" format="1">
  <advance width="600"/>
  <unicode hex="00BA"/>
  <outline>
    <contour>
      <point x="300" y="224" type="curve" smooth="yes"/>
      <point x="174" y="224"/>
      <point x="81" y="306"/>
      <point x="81" y="468" type="curve" smooth="yes"/>
      <point x="81" y="631"/>
      <point x="175" y="711"/>
      <point x="300" y="711" type="curve" smooth="yes"/>
      <point x="425" y="711"/>
      <point x="519" y="631"/>
      <point x="519" y="468" type="curve" smooth="yes"/>
      <point x="519" y="306"/>
      <point x="426" y="224"/>
    </contour>
    <contour>
      <point x="300" y="348" type="curve" smooth="yes"/>
      <point x="346" y="348"/>
      <point x="369" y="386"/>
      <point x="369" y="468" type="curve" smooth="yes"/>
      <point x="369" y="552"/>
      <point x="346" y="587"/>
      <point x="300" y="587" type="curve" smooth="yes"/>
      <point x="254" y="587"/>
      <point x="231" y="552"/>
      <point x="231" y="468" type="curve" smooth="yes"/>
      <point x="231" y="386"/>
      <point x="254" y="348"/>
    </contour>
  </outline>
</glyph>
<glyph name="guillemotright" format="1">
  <advance width="600"/>
  <unicode hex="00BB"/>
  <outline>
    <contour>
      <point x="293" y="0" type="line"/>
      <point x="407" y="262" type="line"/>
      <point x="293" y="525" type="line"/>
      <point x="464" y="525" type="line"/>
      <point x="578" y="263" type="line"/>
      <point x="464" y="0" type="line"/>
    </contour>
    <contour>
      <point x="34" y="0" type="line"/>
      <point x="149" y="262" type="line"/>
      <point x="34" y="525" type="line"/>
      <point x="205" y="525" type="line"/>
      <point x="320" y="263" type="line"/>
      <point x="205" y="0" type="line"/>
    </contour>
  </outline>
</glyph>
<glyph name="questiondown" format="1">
  <advance width="600"/>
  <unicode hex="00BF"/>
  <outline>
    <contour>
      <point x="322" y="514" type="curve" smooth="yes"/>
      <point x="264" y="514"/>
      <point x="223" y="555"/>
      <point x="223" y="611" type="curve" smooth="yes"/>
      <point x="223" y="668"/>
      <point x="264" y="711"/>
      <point x="322" y="711" type="curve" smooth="yes"/>
      <point x="380" y="711"/>
      <point x="422" y="668"/>
      <point x="422" y="611" type="curve" smooth="yes"/>
      <point x="422" y="555"/>
      <point x="380" y="514"/>
    </contour>
    <contour>
      <point x="293" y="-11" type="curve" smooth="yes"/>
      <point x="135" y="-11"/>
      <point x="43" y="55"/>
      <point x="43" y="179" type="curve" smooth="yes"/>
      <point x="43" y="262"/>
      <point x="85" y="305"/>
      <point x="161" y="346" type="curve" smooth="yes"/>
      <point x="217" y="376"/>
      <point x="238" y="405"/>
      <point x="238" y="455" type="curve"/>
      <point x="407" y="455" type="line"/>
      <point x="407" y="368"/>
      <point x="379" y="312"/>
      <point x="283" y="263" type="curve" smooth="yes"/>
      <point x="241" y="242"/>
      <point x="222" y="226"/>
      <point x="222" y="197" type="curve" smooth="yes"/>
      <point x="222" y="167"/>
      <point x="246" y="139"/>
      <point x="296" y="139" type="curve" smooth="yes"/>
      <point x="364" y="139"/>
      <point x="421" y="166"/>
      <point x="476" y="207" type="curve"/>
      <point x="562" y="77" type="line"/>
      <point x="489" y="24"/>
      <point x="402" y="-11"/>
    </contour>
  </outline>
</glyph>
<glyph name="Aring" format="1">
  <advance width="600"/>
  <unicode hex="00C5"/>
  <outline>
    <contour>
      <point x="400" y="660" type="curve"/>
      <point x="574" y="0" type="line"/>
      <point x="395" y="0" type="line"/>
      <point x="369" y="125" type="line"/>
      <point x="226" y="125" type="line"/>
      <point x="201" y="0" type="line"/>
      <point x="26" y="0" type="line"/>
      <point x="200" y="659" type="line"/>
      <point x="174" y="684"/>
      <point x="158" y="719"/>
      <point x="158" y="759" type="curve" smooth="yes"/>
      <point x="158" y="838"/>
      <point x="221" y="898"/>
      <point x="300" y="898" type="curve" smooth="yes"/>
      <point x="379" y="898"/>
      <point x="442" y="838"/>
      <point x="442" y="759" type="curve" smooth="yes"/>
      <point x="442" y="719"/>
      <point x="426" y="685"/>
    </contour>
    <contour>
      <point x="300" y="700" type="curve" smooth="yes"/>
      <point x="334" y="700"/>
      <point x="355" y="723"/>
      <point x="355" y="759" type="curve" smooth="yes"/>
      <point x="355" y="795"/>
      <point x="334" y="819"/>
      <point x="300" y="819" type="curve" smooth="yes"/>
      <point x="266" y="819"/>
      <point x="245" y="795"/>
      <point x="245" y="759" type="curve" smooth="yes"/>
      <point x="245" y="723"/>
      <point x="266" y="700"/>
    </contour>
    <contour>
      <point x="252" y="266" type="line"/>
      <point x="342" y="266" type="line"/>
      <point x="338" y="291" type="line" smooth="yes"/>
      <point x="321" y="397"/>
      <point x="307" y="482"/>
      <point x="297" y="552" type="curve"/>
      <point x="288" y="482"/>
      <point x="274" y="396"/>
      <point x="256" y="290" type="curve" smooth="yes"/>
    </contour>
  </outline>
</glyph>
<glyph name="AE" format="1">
  <advance width="600"/>
  <unicode hex="00C6"/>
  <outline>
    <contour>
      <point x="-1" y="0" type="line"/>
      <point x="187" y="700" type="line"/>
      <point x="574" y="700" type="line"/>
      <point x="574" y="560" type="line"/>
      <point x="416" y="560" type="line"/>
      <point x="416" y="435" type="line"/>
      <point x="532" y="435" type="line"/>
      <point x="532" y="296" type="line"/>
      <point x="416" y="296" type="line"/>
      <point x="416" y="140" type="line"/>
      <point x="581" y="140" type="line"/>
      <point x="581" y="0" type="line"/>
      <point x="266" y="0" type="line"/>
      <point x="266" y="121" type="line"/>
      <point x="171" y="121" type="line"/>
      <point x="145" y="0" type="line"/>
    </contour>
    <contour>
      <point x="200" y="253" type="line"/>
      <point x="266" y="253" type="line"/>
      <point x="266" y="438" type="line" smooth="yes"/>
      <point x="266" y="514"/>
      <point x="268" y="564"/>
      <point x="270" y="605" type="curve"/>
      <point x="263" y="567"/>
      <point x="257" y="513"/>
      <point x="239" y="430" type="curve" smooth="yes"/>
    </contour>
  </outline>
</glyph>
<glyph name="Ccedilla" format="1">
  <advance width="600"/>
  <unicode hex="00C7"/>
  <outline>
    <contour>
      <point x="269" y="-8" type="line"/>
      <point x="121" y="13"/>
      <point x="46" y="143"/>
      <point x="46" y="349" type="curve" smooth="yes"/>
      <point x="46" y="587"/>
      <point x="149" y="711"/>
      <point x="315" y="711" type="curve" smooth="yes"/>
      <point x="469" y="711"/>
      <point x="525" y="630"/>
      <point x="558" y="497" type="curve"/>
      <point x="392" y="445" type="line"/>
      <point x="375" y="521"/>
      <point x="362" y="558"/>
      <point x="314" y="558" type="curve" smooth="yes"/>
      <point x="252" y="558"/>
      <point x="226" y="496"/>
      <point x="226" y="351" type="curve" smooth="yes"/>
      <point x="226" y="206"/>
      <point x="252" y="142"/>
      <point x="316" y="142" type="curve" smooth="yes"/>
      <point x="361" y="142"/>
      <point x="379" y="175"/>
      <point x="402" y="250" type="curve"/>
      <point x="560" y="187" type="line"/>
      <point x="526" y="74"/>
      <point x="465" y="-5"/>
      <point x="329" y="-11" type="curve"/>
      <point x="320" y="-42" type="line"/>
      <point x="330" y="-37"/>
      <point x="346" y="-33"/>
      <point x="362" y="-33" type="curve" smooth="yes"/>
      <point x="412" y="-33"/>
      <point x="440" y="-62"/>
      <point x="440" y="-106" type="curve" smooth="yes"/>
      <point x="440" y="-160"/>
      <point x="401" y="-193"/>
      <point x="329" y="-193" type="curve" smooth="yes"/>
      <point x="272" y="-193"/>
      <point x="223" y="-177"/>
      <point x="182" y="-157" type="curve"/>
      <point x="201" y="-111" type="line"/>
      <point x="238" y="-128"/>
      <point x="273" y="-135"/>
      <point x="302" y="-135" type="curve" smooth="yes"/>
      <point x="330" y="-135"/>
      <point x="348" y="-126"/>
      <point x="348" y="-108" type="curve" smooth="yes"/>
      <point x="348" y="-93"/>
      <point x="339" y="-85"/>
      <point x="326" y="-85" type="curve" smooth="yes"/>
      <point x="311" y="-85"/>
      <point x="301" y="-91"/>
      <point x="289" y="-99" type="curve"/>
      <point x="251" y="-73" type="line"/>
    </contour>
  </outline>
</glyph>
<glyph name="Eth" format="1">
  <advance width="600"/>
  <unicode hex="00D0"/>
  <outline>
    <contour>
      <point x="64" y="0" type="line"/>
      <point x="64" y="298" type="line"/>
      <point x="17" y="298" type="line"/>
      <point x="17" y="428" type="line"/>
      <point x="64" y="428" type="line"/>
      <point x="64" y="700" type="line"/>
      <point x="275" y="700" type="line" smooth="yes"/>
      <point x="462" y="700"/>
      <point x="562" y="597"/>
      <point x="562" y="355" type="curve" smooth="yes"/>
      <point x="562" y="101"/>
      <point x="458" y="0"/>
      <point x="260" y="0" type="curve" smooth="yes"/>
    </contour>
    <contour>
      <point x="243" y="145" type="line"/>
      <point x="266" y="145" type="line" smooth="yes"/>
      <point x="349" y="145"/>
      <point x="382" y="180"/>
      <point x="382" y="352" type="curve" smooth="yes"/>
      <point x="382" y="517"/>
      <point x="354" y="554"/>
      <point x="270" y="554" type="curve" smooth="yes"/>
      <point x="243" y="554" type="line"/>
      <point x="243" y="428" type="line"/>
      <point x="310" y="428" type="line"/>
      <point x="310" y="298" type="line"/>
      <point x="243" y="298" type="line"/>
    </contour>
  </outline>
</glyph>
<glyph name="Oslash" format="1">
  <advance width="600"/>
  <unicode hex="00D8"/>
  <outline>
    <contour>
      <point x="29" y="-50" type="line"/>
      <point x="96" y="94" type="line"/>
      <point x="59" y="153"/>
      <point x="38" y="237"/>
      <point x="38" y="349" type="curve" smooth="yes"/>
      <point x="38" y="595"/>
      <point x="141" y="711"/>
      <point x="301" y="711" type="curve" smooth="yes"/>
      <point x="330" y="711"/>
      <point x="357" y="707"/>
      <point x="381" y="700" type="curve"/>
      <point x="405" y="750" type="line"/>
      <point x="570" y="750" type="line"/>
      <point x="503" y="607" type="line"/>
      <point x="541" y="548"/>
      <point x="562" y="463"/>
      <point x="562" y="351" type="curve" smooth="yes"/>
      <point x="562" y="105"/>
      <point x="459" y="-11"/>
      <point x="299" y="-11" type="curve" smooth="yes"/>
      <point x="270" y="-11"/>
      <point x="243" y="-7"/>
      <point x="218" y="0" type="curve"/>
      <point x="194" y="-50" type="line"/>
    </contour>
    <contour>
      <point x="301" y="135" type="curve" smooth="yes"/>
      <point x="355" y="135"/>
      <point x="382" y="181"/>
      <point x="382" y="349" type="curve" smooth="yes"/>
      <point x="382" y="517"/>
      <point x="354" y="565"/>
      <point x="299" y="565" type="curve" smooth="yes"/>
      <point x="244" y="565"/>
      <point x="218" y="519"/>
      <point x="218" y="351" type="curve" smooth="yes"/>
      <point x="218" y="183"/>
      <point x="246" y="135"/>
    </contour>
  </outline>
</glyph>
<glyph name="Thorn" format="1">
  <advance width="600"/>
  <unicode hex="00DE"/>
  <outline>
    <contour>
      <point x="63" y="0" type="line"/>
      <point x="63" y="700" type="line"/>
      <point x="242" y="700" type="line"/>
      <point x="242" y="589" type="line"/>
      <point x="322" y="589" type="line" smooth="yes"/>
      <point x="461" y="589"/>
      <point x="560" y="531"/>
      <point x="560" y="366" type="curve" smooth="yes"/>
      <point x="560" y="196"/>
      <point x="456" y="133"/>
      <point x="310" y="133" type="curve" smooth="yes"/>
      <point x="242" y="133" type="line"/>
      <point x="242" y="0" type="line"/>
    </contour>
    <contour>
      <point x="242" y="275" type="line"/>
      <point x="308" y="275" type="line" smooth="yes"/>
      <point x="361" y="275"/>
      <point x="381" y="303"/>
      <point x="381" y="362" type="curve" smooth="yes"/>
      <point x="381" y="419"/>
      <point x="363" y="447"/>
      <point x="311" y="447" type="curve" smooth="yes"/>
      <point x="242" y="447" type="line"/>
    </contour>
  </outline>
</glyph>
<glyph name="germandbls" format="1">
  <advance width="600"/>
  <unicode hex="00DF"/>
  <outline>
    <contour>
      <point x="60" y="-193" type="line"/>
      <point x="60" y="497" type="line" smooth="yes"/>
      <point x="60" y="656"/>
      <point x="153" y="726"/>
      <point x="288" y="726" type="curve" smooth="yes"/>
      <point x="411" y="726"/>
      <point x="508" y="669"/>
      <point x="508" y="542" type="curve" smooth="yes"/>
      <point x="508" y="459"/>
      <point x="468" y="428"/>
      <point x="424" y="402" type="curve"/>
      <point x="490" y="386"/>
      <point x="560" y="344"/>
      <point x="560" y="233" type="curve" smooth="yes"/>
      <point x="560" y="76"/>
      <point x="471" y="0"/>
      <point x="303" y="0" type="curve" smooth="yes"/>
      <point x="289" y="0" type="line"/>
      <point x="289" y="138" type="line"/>
      <point x="303" y="138" type="line" smooth="yes"/>
      <point x="357" y="138"/>
      <point x="383" y="166"/>
      <point x="383" y="230" type="curve" smooth="yes"/>
      <point x="383" y="300"/>
      <point x="352" y="323"/>
      <point x="295" y="323" type="curve" smooth="yes"/>
      <point x="289" y="323" type="line"/>
      <point x="289" y="457" type="line"/>
      <point x="295" y="457" type="line" smooth="yes"/>
      <point x="327" y="457"/>
      <point x="339" y="476"/>
      <point x="339" y="513" type="curve" smooth="yes"/>
      <point x="339" y="563"/>
      <point x="325" y="584"/>
      <point x="287" y="584" type="curve" smooth="yes"/>
      <point x="251" y="584"/>
      <point x="238" y="558"/>
      <point x="238" y="502" type="curve" smooth="yes"/>
      <point x="238" y="-120" type="line"/>
    </contour>
  </outline>
</glyph>
<glyph name="ae" format="1">
  <advance width="600"/>
  <unicode hex="00E6"/>
  <outline>
    <contour>
      <point x="174" y="-11" type="curve" smooth="yes"/>
      <point x="69" y="-11"/>
      <point x="23" y="51"/>
      <point x="23" y="164" type="curve" smooth="yes"/>
      <point x="23" y="280"/>
      <point x="70" y="338"/>
      <point x="160" y="338" type="curve" smooth="yes"/>
      <point x="191" y="338"/>
      <point x="210" y="332"/>
      <point x="227" y="323" type="curve"/>
      <point x="227" y="372" type="line" smooth="yes"/>
      <point x="227" y="406"/>
      <point x="217" y="419"/>
      <point x="184" y="419" type="curve" smooth="yes"/>
      <point x="152" y="419"/>
      <point x="122" y="406"/>
      <point x="81" y="383" type="curve"/>
      <point x="40" y="484" type="line"/>
      <point x="87" y="513"/>
      <point x="141" y="536"/>
      <point x="201" y="536" type="curve" smooth="yes"/>
      <point x="264" y="536"/>
      <point x="291" y="512"/>
      <point x="306" y="483" type="curve"/>
      <point x="323" y="513"/>
      <point x="356" y="536"/>
      <point x="412" y="536" type="curve" smooth="yes"/>
      <point x="525" y="536"/>
      <point x="575" y="457"/>
      <point x="575" y="260" type="curve" smooth="yes"/>
      <point x="575" y="252"/>
      <point x="575" y="231"/>
      <point x="574" y="222" type="curve"/>
      <point x="362" y="222" type="line"/>
      <point x="364" y="124"/>
      <point x="378" y="102"/>
      <point x="406" y="102" type="curve" smooth="yes"/>
      <point x="431" y="102"/>
      <point x="445" y="116"/>
      <point x="467" y="171" type="curve"/>
      <point x="569" y="121" type="line"/>
      <point x="534" y="43"/>
      <point x="493" y="-11"/>
      <point x="400" y="-11" type="curve" smooth="yes"/>
      <point x="347" y="-11"/>
      <point x="309" y="11"/>
      <point x="288" y="44" type="curve"/>
      <point x="261" y="14"/>
      <point x="225" y="-11"/>
    </contour>
    <contour>
      <point x="362" y="317" type="curve"/>
      <point x="438" y="317" type="line"/>
      <point x="435" y="401"/>
      <point x="429" y="429"/>
      <point x="401" y="429" type="curve" smooth="yes"/>
      <point x="376" y="429"/>
      <point x="366" y="407"/>
    </contour>
    <contour>
      <point x="195" y="96" type="curve" smooth="yes"/>
      <point x="211" y="96"/>
      <point x="226" y="104"/>
      <point x="237" y="114" type="curve"/>
      <point x="231" y="139"/>
      <point x="228" y="197"/>
      <point x="227" y="234" type="curve"/>
      <point x="217" y="240"/>
      <point x="208" y="243"/>
      <point x="190" y="243" type="curve" smooth="yes"/>
      <point x="171" y="243"/>
      <point x="159" y="221"/>
      <point x="159" y="166" type="curve" smooth="yes"/>
      <point x="159" y="111"/>
      <point x="169" y="96"/>
    </contour>
  </outline>
</glyph>
<glyph name="ccedilla" format="1">
  <advance width="600"/>
  <unicode hex="00E7"/>
  <outline>
    <contour>
      <point x="285" y="-9" type="curve"/>
      <point x="145" y="7"/>
      <point x="58" y="111"/>
      <point x="58" y="266" type="curve" smooth="yes"/>
      <point x="58" y="412"/>
      <point x="149" y="536"/>
      <point x="330" y="536" type="curve" smooth="yes"/>
      <point x="424" y="536"/>
      <point x="489" y="498"/>
      <point x="542" y="430" type="curve"/>
      <point x="419" y="328" type="line"/>
      <point x="392" y="369"/>
      <point x="372" y="392"/>
      <point x="325" y="392" type="curve" smooth="yes"/>
      <point x="271" y="392"/>
      <point x="239" y="333"/>
      <point x="239" y="261" type="curve" smooth="yes"/>
      <point x="239" y="184"/>
      <point x="271" y="133"/>
      <point x="331" y="133" type="curve" smooth="yes"/>
      <point x="373" y="133"/>
      <point x="404" y="158"/>
      <point x="438" y="201" type="curve"/>
      <point x="545" y="102" type="line"/>
      <point x="492" y="36"/>
      <point x="429" y="-5"/>
      <point x="346" y="-10" type="curve"/>
      <point x="337" y="-42" type="line"/>
      <point x="347" y="-37"/>
      <point x="363" y="-33"/>
      <point x="379" y="-33" type="curve" smooth="yes"/>
      <point x="429" y="-33"/>
      <point x="457" y="-62"/>
      <point x="457" y="-106" type="curve" smooth="yes"/>
      <point x="457" y="-160"/>
      <point x="418" y="-193"/>
      <point x="346" y="-193" type="curve" smooth="yes"/>
      <point x="289" y="-193"/>
      <point x="240" y="-177"/>
      <point x="199" y="-157" type="curve"/>
      <point x="218" y="-111" type="line"/>
      <point x="255" y="-128"/>
      <point x="290" y="-135"/>
      <point x="319" y="-135" type="curve" smooth="yes"/>
      <point x="347" y="-135"/>
      <point x="365" y="-126"/>
      <point x="365" y="-108" type="curve" smooth="yes"/>
      <point x="365" y="-93"/>
      <point x="356" y="-85"/>
      <point x="343" y="-85" type="curve" smooth="yes"/>
      <point x="328" y="-85"/>
      <point x="318" y="-91"/>
      <point x="306" y="-99" type="curve"/>
      <point x="268" y="-73" type="line"/>
      <point x="268" y="-73"/>
      <point x="286" y="-9"/>
    </contour>
  </outline>
</glyph>
<glyph name="eth" format="1">
  <advance width="600"/>
  <unicode hex="00F0"/>
  <outline>
    <contour>
      <point x="300" y="-11" type="curve" smooth="yes"/>
      <point x="165" y="-11"/>
      <point x="46" y="72"/>
      <point x="46" y="228" type="curve" smooth="yes"/>
      <point x="46" y="385"/>
      <point x="159" y="458"/>
      <point x="258" y="458" type="curve" smooth="yes"/>
      <point x="325" y="458"/>
      <point x="367" y="443"/>
      <point x="396" y="415" type="curve"/>
      <point x="389" y="456"/>
      <point x="369" y="490"/>
      <point x="339" y="518" type="curve"/>
      <point x="299" y="476" type="line"/>
      <point x="226" y="535" type="line"/>
      <point x="258" y="568" type="line"/>
      <point x="228" y="580"/>
      <point x="195" y="585"/>
      <point x="160" y="587" type="curve"/>
      <point x="160" y="711" type="line"/>
      <point x="235" y="711"/>
      <point x="300" y="696"/>
      <point x="354" y="668" type="curve"/>
      <point x="396" y="711" type="line"/>
      <point x="469" y="652" type="line"/>
      <point x="431" y="613" type="line"/>
      <point x="512" y="536"/>
      <point x="554" y="416"/>
      <point x="554" y="276" type="curve" smooth="yes"/>
      <point x="554" y="72"/>
      <point x="435" y="-11"/>
    </contour>
    <contour>
      <point x="299" y="131" type="curve" smooth="yes"/>
      <point x="344" y="131"/>
      <point x="377" y="159"/>
      <point x="377" y="228" type="curve" smooth="yes"/>
      <point x="377" y="298"/>
      <point x="344" y="323"/>
      <point x="300" y="323" type="curve" smooth="yes"/>
      <point x="255" y="323"/>
      <point x="222" y="298"/>
      <point x="222" y="227" type="curve" smooth="yes"/>
      <point x="222" y="159"/>
      <point x="255" y="131"/>
    </contour>
  </outline>
</glyph>
<glyph name="oslash" format="1">
  <advance width="600"/>
  <unicode hex="00F8"/>
  <outline>
    <contour>
      <point x="26" y="-50" type="line"/>
      <point x="103" y="75" type="line"/>
      <point x="66" y="121"/>
      <point x="44" y="183"/>
      <point x="44" y="263" type="curve" smooth="yes"/>
      <point x="44" y="447"/>
      <point x="157" y="536"/>
      <point x="299" y="536" type="curve" smooth="yes"/>
      <point x="327" y="536"/>
      <point x="353" y="533"/>
      <point x="378" y="526" type="curve"/>
      <point x="408" y="575" type="line"/>
      <point x="570" y="575" type="line"/>
      <point x="495" y="453" type="line"/>
      <point x="533" y="408"/>
      <point x="556" y="345"/>
      <point x="556" y="263" type="curve" smooth="yes"/>
      <point x="556" y="82"/>
      <point x="442" y="-11"/>
      <point x="300" y="-11" type="curve" smooth="yes"/>
      <point x="272" y="-11"/>
      <point x="245" y="-7"/>
      <point x="219" y="0" type="curve"/>
      <point x="189" y="-50" type="line"/>
    </contour>
    <contour>
      <point x="300" y="128" type="curve" smooth="yes"/>
      <point x="349" y="128"/>
      <point x="375" y="174"/>
      <point x="375" y="263" type="curve" smooth="yes"/>
      <point x="375" y="354"/>
      <point x="348" y="397"/>
      <point x="300" y="397" type="curve" smooth="yes"/>
      <point x="251" y="397"/>
      <point x="225" y="354"/>
      <point x="225" y="263" type="curve" smooth="yes"/>
      <point x="225" y="174"/>
      <point x="252" y="128"/>
    </contour>
  </outline>
</glyph>
<glyph name="thorn" format="1">
  <advance width="600"/>
  <unicode hex="00FE"/>
  <outline>
    <contour>
      <point x="69" y="-193" type="line"/>
      <point x="69" y="658" type="line"/>
      <point x="247" y="729" type="line"/>
      <point x="247" y="484" type="line"/>
      <point x="284" y="513"/>
      <point x="319" y="536"/>
      <point x="375" y="536" type="curve" smooth="yes"/>
      <point x="475" y="536"/>
      <point x="554" y="455"/>
      <point x="554" y="264" type="curve" smooth="yes"/>
      <point x="554" y="76"/>
      <point x="479" y="-11"/>
      <point x="368" y="-11" type="curve" smooth="yes"/>
      <point x="315" y="-11"/>
      <point x="277" y="13"/>
      <point x="247" y="37" type="curve"/>
      <point x="247" y="-120" type="line"/>
    </contour>
    <contour>
      <point x="315" y="138" type="curve" smooth="yes"/>
      <point x="353" y="138"/>
      <point x="373" y="162"/>
      <point x="373" y="258" type="curve" smooth="yes"/>
      <point x="373" y="361"/>
      <point x="353" y="387"/>
      <point x="314" y="387" type="curve" smooth="yes"/>
      <point x="288" y="387"/>
      <point x="266" y="376"/>
      <point x="247" y="361" type="curve"/>
      <point x="247" y="165" type="line"/>
      <point x="268" y="147"/>
      <point x="287" y="138"/>
    </contour>
  </outline>
</glyph>
<glyph name="dotlessi" format="1">
  <advance width="600"/>
  <unicode hex="0131"/>
  <outline>
    <contour>
      <point x="358" y="-11" type="curve" smooth="yes"/>
      <point x="242" y="-11"/>
      <point x="189" y="51"/>
      <point x="189" y="167" type="curve" smooth="yes"/>
      <point x="189" y="525" type="line"/>
      <point x="369" y="525" type="line"/>
      <point x="369" y="199" type="line" smooth="yes"/>
      <point x="369" y="151"/>
      <point x="396" y="140"/>
      <point x="428" y="140" type="curve" smooth="yes"/>
      <point x="463" y="140"/>
      <point x="491" y="148"/>
      <point x="518" y="159" type="curve"/>
      <point x="491" y="17" type="line"/>
      <point x="451" y="0"/>
      <point x="407" y="-11"/>
    </contour>
  </outline>
</glyph>
<glyph name="Lslash" format="1">
  <advance width="600"/>
  <unicode hex="0141"/>
  <outline>
    <contour>
      <point x="96" y="0" type="line"/>
      <point x="96" y="223" type="line"/>
      <point x="30" y="184" type="line"/>
      <point x="30" y="343" type="line"/>
      <point x="96" y="382" type="line"/>
      <point x="96" y="700" type="line"/>
      <point x="275" y="700" type="line"/>
      <point x="275" y="487" type="line"/>
      <point x="385" y="552" type="line"/>
      <point x="385" y="393" type="line"/>
      <point x="275" y="328" type="line"/>
      <point x="275" y="152" type="line"/>
      <point x="545" y="152" type="line"/>
      <point x="545" y="0" type="line"/>
    </contour>
  </outline>
</glyph>
<glyph name="lslash" format="1">
  <advance width="600"/>
  <unicode hex="0142"/>
  <outline>
    <contour>
      <point x="189" y="236" type="line"/>
      <point x="91" y="188" type="line"/>
      <point x="91" y="341" type="line"/>
      <point x="189" y="389" type="line"/>
      <point x="189" y="658" type="line"/>
      <point x="369" y="729" type="line"/>
      <point x="369" y="478" type="line"/>
      <point x="487" y="536" type="line"/>
      <point x="487" y="383" type="line"/>
      <point x="369" y="325" type="line"/>
      <point x="369" y="199" type="line" smooth="yes"/>
      <point x="369" y="151"/>
      <point x="396" y="140"/>
      <point x="428" y="140" type="curve" smooth="yes"/>
      <point x="463" y="140"/>
      <point x="491" y="148"/>
      <point x="518" y="159" type="curve"/>
      <point x="491" y="17" type="line"/>
      <point x="451" y="0"/>
      <point x="407" y="-11"/>
      <point x="358" y="-11" type="curve" smooth="yes"/>
      <point x="242" y="-11"/>
      <point x="189" y="51"/>
      <point x="189" y="167" type="curve" smooth="yes"/>
    </contour>
  </outline>
</glyph>
<glyph name="OE" format="1">
  <advance width="600"/>
  <unicode hex="0152"/>
  <outline>
    <contour>
      <point x="206" y="-11" type="curve" smooth="yes"/>
      <point x="91" y="-11"/>
      <point x="19" y="90"/>
      <point x="19" y="349" type="curve" smooth="yes"/>
      <point x="19" y="608"/>
      <point x="93" y="711"/>
      <point x="208" y="711" type="curve" smooth="yes"/>
      <point x="251" y="711"/>
      <point x="284" y="689"/>
      <point x="304" y="649" type="curve"/>
      <point x="304" y="700" type="line"/>
      <point x="574" y="700" type="line"/>
      <point x="574" y="560" type="line"/>
      <point x="415" y="560" type="line"/>
      <point x="415" y="435" type="line"/>
      <point x="532" y="435" type="line"/>
      <point x="532" y="296" type="line"/>
      <point x="415" y="296" type="line"/>
      <point x="415" y="140" type="line"/>
      <point x="581" y="140" type="line"/>
      <point x="581" y="0" type="line"/>
      <point x="304" y="0" type="line"/>
      <point x="304" y="50" type="line"/>
      <point x="282" y="10"/>
      <point x="257" y="-11"/>
    </contour>
    <contour>
      <point x="225" y="122" type="curve" smooth="yes"/>
      <point x="255" y="122"/>
      <point x="273" y="144"/>
      <point x="273" y="349" type="curve" smooth="yes"/>
      <point x="273" y="554"/>
      <point x="255" y="578"/>
      <point x="225" y="578" type="curve" smooth="yes"/>
      <point x="192" y="578"/>
      <point x="176" y="556"/>
      <point x="176" y="351" type="curve" smooth="yes"/>
      <point x="176" y="146"/>
      <point x="194" y="122"/>
    </contour>
  </outline>
</glyph>
<glyph name="oe" format="1">
  <advance width="600"/>
  <unicode hex="0153"/>
  <outline>
    <contour>
      <point x="191" y="-11" type="curve" smooth="yes"/>
      <point x="74" y="-11"/>
      <point x="13" y="82"/>
      <point x="13" y="260" type="curve" smooth="yes"/>
      <point x="13" y="436"/>
      <point x="66" y="536"/>
      <point x="194" y="536" type="curve" smooth="yes"/>
      <point x="248" y="536"/>
      <point x="284" y="506"/>
      <point x="303" y="472" type="curve"/>
      <point x="324" y="507"/>
      <point x="358" y="536"/>
      <point x="410" y="536" type="curve" smooth="yes"/>
      <point x="521" y="536"/>
      <point x="580" y="444"/>
      <point x="580" y="260" type="curve" smooth="yes"/>
      <point x="580" y="252"/>
      <point x="580" y="231"/>
      <point x="579" y="222" type="curve"/>
      <point x="368" y="222" type="line"/>
      <point x="370" y="127"/>
      <point x="383" y="104"/>
      <point x="411" y="104" type="curve" smooth="yes"/>
      <point x="436" y="104"/>
      <point x="446" y="119"/>
      <point x="467" y="171" type="curve"/>
      <point x="574" y="121" type="line"/>
      <point x="539" y="43"/>
      <point x="497" y="-11"/>
      <point x="407" y="-11" type="curve" smooth="yes"/>
      <point x="351" y="-11"/>
      <point x="318" y="20"/>
      <point x="300" y="54" type="curve"/>
      <point x="278" y="19"/>
      <point x="246" y="-11"/>
    </contour>
    <contour>
      <point x="368" y="317" type="curve"/>
      <point x="443" y="317" type="line"/>
      <point x="440" y="398"/>
      <point x="434" y="426"/>
      <point x="406" y="426" type="curve" smooth="yes"/>
      <point x="381" y="426"/>
      <point x="372" y="401"/>
    </contour>
    <contour>
      <point x="194" y="111" type="curve" smooth="yes"/>
      <point x="224" y="111"/>
      <point x="231" y="151"/>
      <point x="231" y="261" type="curve" smooth="yes"/>
      <point x="231" y="379"/>
      <point x="223" y="414"/>
      <point x="193" y="414" type="curve" smooth="yes"/>
      <point x="163" y="414"/>
      <point x="159" y="378"/>
      <point x="159" y="264" type="curve" smooth="yes"/>
      <point x="159" y="148"/>
      <point x="162" y="111"/>
    </contour>
  </outline>
</glyph>
<glyph name="florin" format="1">
  <advance width="600"/>
  <unicode hex="0192"/>
  <outline>
    <contour>
      <point x="75" y="-193" type="line"/>
      <point x="171" y="355" type="line"/>
      <point x="94" y="355" type="line"/>
      <point x="94" y="495" type="line"/>
      <point x="196" y="495" type="line"/>
      <point x="202" y="527" type="line" smooth="yes"/>
      <point x="225" y="650"/>
      <point x="297" y="711"/>
      <point x="422" y="711" type="curve" smooth="yes"/>
      <point x="488" y="711"/>
      <point x="522" y="698"/>
      <point x="547" y="687" type="curve"/>
      <point x="547" y="552" type="line"/>
      <point x="527" y="562"/>
      <point x="497" y="575"/>
      <point x="448" y="575" type="curve" smooth="yes"/>
      <point x="404" y="575"/>
      <point x="382" y="562"/>
      <point x="375" y="526" type="curve" smooth="yes"/>
      <point x="369" y="495" type="line"/>
      <point x="482" y="495" type="line"/>
      <point x="482" y="355" type="line"/>
      <point x="349" y="355" type="line"/>
      <point x="266" y="-120" type="line"/>
    </contour>
  </outline>
</glyph>
<glyph name="circumflex" format="1">
  <advance width="600"/>
  <unicode hex="02C6"/>
  <outline>
    <contour>
      <point x="98" y="595" type="line"/>
      <point x="229" y="755" type="line"/>
      <point x="371" y="755" type="line"/>
      <point x="502" y="595" type="line"/>
      <point x="382" y="595" type="line"/>
      <point x="299" y="659" type="line"/>
      <point x="216" y="595" type="line"/>
    </contour>
  </outline>
</glyph>
<glyph name="caron" format="1">
  <advance width="600"/>
  <unicode hex="02C7"/>
  <outline>
    <contour>
      <point x="229" y="595" type="line"/>
      <point x="98" y="755" type="line"/>
      <point x="218" y="755" type="line"/>
      <point x="301" y="691" type="line"/>
      <point x="384" y="755" type="line"/>
      <point x="502" y="755" type="line"/>
      <point x="371" y="595" type="line"/>
    </contour>
  </outline>
</glyph>
<glyph name="breve" format="1">
  <advance width="600"/>
  <unicode hex="02D8"/>
  <outline>
    <contour>
      <point x="299" y="595" type="curve" smooth="yes"/>
      <point x="185" y="595"/>
      <point x="128" y="652"/>
      <point x="107" y="755" type="curve"/>
      <point x="212" y="755" type="line"/>
      <point x="223" y="721"/>
      <point x="245" y="694"/>
      <point x="301" y="694" type="curve" smooth="yes"/>
      <point x="355" y="694"/>
      <point x="377" y="721"/>
      <point x="388" y="755" type="curve"/>
      <point x="493" y="755" type="line"/>
      <point x="472" y="652"/>
      <point x="416" y="595"/>
    </contour>
  </outline>
</glyph>
<glyph name="dotaccent" format="1">
  <advance width="600"/>
  <unicode hex="02D9"/>
  <outline>
    <contour>
      <point x="300" y="595" type="curve" smooth="yes"/>
      <point x="251" y="595"/>
      <point x="206" y="638"/>
      <point x="206" y="686" type="curve" smooth="yes"/>
      <point x="206" y="738"/>
      <point x="251" y="779"/>
      <point x="300" y="779" type="curve" smooth="yes"/>
      <point x="350" y="779"/>
      <point x="394" y="738"/>
      <point x="394" y="686" type="curve" smooth="yes"/>
      <point x="394" y="638"/>
      <point x="350" y="595"/>
    </contour>
  </outline>
</glyph>
<glyph name="ring" format="1">
  <advance width="600"/>
  <unicode hex="02DA"/>
  <outline>
    <contour>
      <point x="300" y="595" type="curve" smooth="yes"/>
      <point x="221" y="595"/>
      <point x="158" y="654"/>
      <point x="158" y="733" type="curve" smooth="yes"/>
      <point x="158" y="812"/>
      <point x="221" y="872"/>
      <point x="300" y="872" type="curve" smooth="yes"/>
      <point x="379" y="872"/>
      <point x="442" y="812"/>
      <point x="442" y="733" type="curve" smooth="yes"/>
      <point x="442" y="654"/>
      <point x="379" y="595"/>
    </contour>
    <contour>
      <point x="300" y="674" type="curve" smooth="yes"/>
      <point x="334" y="674"/>
      <point x="355" y="697"/>
      <point x="355" y="733" type="curve" smooth="yes"/>
      <point x="355" y="769"/>
      <point x="334" y="793"/>
      <point x="300" y="793" type="curve" smooth="yes"/>
      <point x="266" y="793"/>
      <point x="245" y="769"/>
      <point x="245" y="733" type="curve" smooth="yes"/>
      <point x="245" y="697"/>
      <point x="266" y="674"/>
    </contour>
  </outline>
</glyph>
<glyph name="ogonek" format="1">
  <advance width="600"/>
  <unicode hex="02DB"/>
  <outline>
    <contour>
      <point x="295" y="-193" type="curve" smooth="yes"/>
      <point x="233" y="-193"/>
      <point x="193" y="-159"/>
      <point x="193" y="-115" type="curve" smooth="yes"/>
      <point x="193" y="-74"/>
      <point x="223" y="-34"/>
      <point x="263" y="0" type="curve"/>
      <point x="324" y="0" type="line"/>
      <point x="302" y="-47"/>
      <point x="296" y="-70"/>
      <point x="296" y="-96" type="curve" smooth="yes"/>
      <point x="296" y="-113"/>
      <point x="311" y="-127"/>
      <point x="334" y="-127" type="curve" smooth="yes"/>
      <point x="357" y="-127"/>
      <point x="385" y="-121"/>
      <point x="419" y="-106" type="curve"/>
      <point x="436" y="-148" type="line"/>
      <point x="395" y="-176"/>
      <point x="347" y="-193"/>
    </contour>
  </outline>
</glyph>
<glyph name="tilde" format="1">
  <advance width="600"/>
  <unicode hex="02DC"/>
  <outline>
    <contour>
      <point x="381" y="592" type="curve" smooth="yes"/>
      <point x="344" y="592"/>
      <point x="322" y="599"/>
      <point x="292" y="617" type="curve" smooth="yes"/>
      <point x="263" y="634"/>
      <point x="246" y="646"/>
      <point x="231" y="646" type="curve" smooth="yes"/>
      <point x="209" y="646"/>
      <point x="199" y="630"/>
      <point x="194" y="595" type="curve"/>
      <point x="91" y="595" type="line"/>
      <point x="91" y="684"/>
      <point x="141" y="752"/>
      <point x="222" y="752" type="curve" smooth="yes"/>
      <point x="259" y="752"/>
      <point x="281" y="745"/>
      <point x="311" y="727" type="curve" smooth="yes"/>
      <point x="340" y="710"/>
      <point x="357" y="698"/>
      <point x="372" y="698" type="curve" smooth="yes"/>
      <point x="394" y="698"/>
      <point x="405" y="716"/>
      <point x="409" y="749" type="curve"/>
      <point x="512" y="749" type="line"/>
      <point x="512" y="660"/>
      <point x="462" y="592"/>
    </contour>
  </outline>
</glyph>
<glyph name="hungarumlaut" format="1">
  <advance width="600"/>
  <unicode hex="02DD"/>
  <outline>
    <contour>
      <point x="290" y="595" type="line"/>
      <point x="367" y="755" type="line"/>
      <point x="560" y="755" type="line"/>
      <point x="413" y="595" type="line"/>
    </contour>
    <contour>
      <point x="65" y="595" type="line"/>
      <point x="142" y="755" type="line"/>
      <point x="335" y="755" type="line"/>
      <point x="188" y="595" type="line"/>
    </contour>
  </outline>
</glyph>
<glyph name="endash" format="1">
  <advance width="600"/>
  <unicode hex="2013"/>
  <outline>
    <contour>
      <point x="81" y="278" type="line"/>
      <point x="81" y="438" type="line"/>
      <point x="519" y="438" type="line"/>
      <point x="519" y="278" type="line"/>
    </contour>
  </outline>
</glyph>
<glyph name="quoteleft" format="1">
  <advance width="600"/>
  <unicode hex="2018"/>
  <unicode hex="02BB"/>
  <outline>
    <contour>
      <point x="164" y="377" type="line"/>
      <point x="266" y="700" type="line"/>
      <point x="393" y="700" type="line"/>
      <point x="380" y="377" type="line"/>
    </contour>
  </outline>
</glyph>
<glyph name="quoteright" format="1">
  <advance width="600"/>
  <unicode hex="2019"/>
  <unicode hex="02BC"/>
  <outline>
    <contour>
      <point x="207" y="377" type="line"/>
      <point x="220" y="700" type="line"/>
      <point x="436" y="700" type="line"/>
      <point x="334" y="377" type="line"/>
    </contour>
  </outline>
</glyph>
<glyph name="quotesinglbase" format="1">
  <advance width="600"/>
  <unicode hex="201A"/>
  <outline>
    <contour>
      <point x="207" y="-119" type="line"/>
      <point x="220" y="204" type="line"/>
      <point x="436" y="204" type="line"/>
      <point x="334" y="-119" type="line"/>
    </contour>
  </outline>
</glyph>
<glyph name="quotedblleft" format="1">
  <advance width="600"/>
  <unicode hex="201C"/>
  <outline>
    <contour>
      <point x="311" y="377" type="line"/>
      <point x="407" y="700" type="line"/>
      <point x="524" y="700" type="line"/>
      <point x="506" y="377" type="line"/>
    </contour>
    <contour>
      <point x="50" y="377" type="line"/>
      <point x="146" y="700" type="line"/>
      <point x="263" y="700" type="line"/>
      <point x="245" y="377" type="line"/>
    </contour>
  </outline>
</glyph>
<glyph name="quotedblright" format="1">
  <advance width="600"/>
  <unicode hex="201D"/>
  <outline>
    <contour>
      <point x="337" y="377" type="line"/>
      <point x="355" y="700" type="line"/>
      <point x="550" y="700" type="line"/>
      <point x="454" y="377" type="line"/>
    </contour>
    <contour>
      <point x="76" y="377" type="line"/>
      <point x="94" y="700" type="line"/>
      <point x="289" y="700" type="line"/>
      <point x="193" y="377" type="line"/>
    </contour>
  </outline>
</glyph>
<glyph name="quotedblbase" format="1">
  <advance width="600"/>
  <unicode hex="201E"/>
  <outline>
    <contour>
      <point x="337" y="-120" type="line"/>
      <point x="355" y="203" type="line"/>
      <point x="550" y="203" type="line"/>
      <point x="454" y="-120" type="line"/>
    </contour>
    <contour>
      <point x="76" y="-120" type="line"/>
      <point x="94" y="203" type="line"/>
      <point x="289" y="203" type="line"/>
      <point x="193" y="-120" type="line"/>
    </contour>
  </outline>
</glyph>
<glyph name="dagger" format="1">
  <advance width="600"/>
  <unicode hex="2020"/>
  <outline>
    <contour>
      <point x="217" y="-100" type="line"/>
      <point x="217" y="360" type="line"/>
      <point x="63" y="360" type="line"/>
      <point x="63" y="513" type="line"/>
      <point x="217" y="513" type="line"/>
      <point x="217" y="700" type="line"/>
      <point x="383" y="700" type="line"/>
      <point x="383" y="513" type="line"/>
      <point x="537" y="513" type="line"/>
      <point x="537" y="360" type="line"/>
      <point x="383" y="360" type="line"/>
      <point x="383" y="-100" type="line"/>
    </contour>
  </outline>
</glyph>
<glyph name="daggerdbl" format="1">
  <advance width="600"/>
  <unicode hex="2021"/>
  <outline>
    <contour>
      <point x="217" y="-100" type="line"/>
      <point x="217" y="87" type="line"/>
      <point x="63" y="87" type="line"/>
      <point x="63" y="237" type="line"/>
      <point x="217" y="237" type="line"/>
      <point x="217" y="363" type="line"/>
      <point x="63" y="363" type="line"/>
      <point x="63" y="513" type="line"/>
      <point x="217" y="513" type="line"/>
      <point x="217" y="700" type="line"/>
      <point x="383" y="700" type="line"/>
      <point x="383" y="513" type="line"/>
      <point x="537" y="513" type="line"/>
      <point x="537" y="363" type="line"/>
      <point x="383" y="363" type="line"/>
      <point x="383" y="237" type="line"/>
      <point x="537" y="237" type="line"/>
      <point x="537" y="87" type="line"/>
      <point x="383" y="87" type="line"/>
      <point x="383" y="-100" type="line"/>
    </contour>
  </outline>
</glyph>
<glyph name="ellipsis" format="1">
  <advance width="600"/>
  <unicode hex="2026"/>
  <outline>
    <contour>
      <point x="503" y="-11" type="curve" smooth="yes"/>
      <point x="455" y="-11"/>
      <point x="422" y="22"/>
      <point x="422" y="92" type="curve" smooth="yes"/>
      <point x="422" y="162"/>
      <point x="455" y="195"/>
      <point x="503" y="195" type="curve" smooth="yes"/>
      <point x="552" y="195"/>
      <point x="583" y="162"/>
      <point x="583" y="92" type="curve" smooth="yes"/>
      <point x="583" y="22"/>
      <point x="552" y="-11"/>
    </contour>
    <contour>
      <point x="301" y="-11" type="curve" smooth="yes"/>
      <point x="253" y="-11"/>
      <point x="220" y="22"/>
      <point x="220" y="92" type="curve" smooth="yes"/>
      <point x="220" y="162"/>
      <point x="253" y="195"/>
      <point x="301" y="195" type="curve" smooth="yes"/>
      <point x="350" y="195"/>
      <point x="381" y="162"/>
      <point x="381" y="92" type="curve" smooth="yes"/>
      <point x="381" y="22"/>
      <point x="350" y="-11"/>
    </contour>
    <contour>
      <point x="98" y="-11" type="curve" smooth="yes"/>
      <point x="50" y="-11"/>
      <point x="17" y="22"/>
      <point x="17" y="92" type="curve" smooth="yes"/>
      <point x="17" y="162"/>
      <point x="50" y="195"/>
      <point x="98" y="195" type="curve" smooth="yes"/>
      <point x="147" y="195"/>
      <point x="178" y="162"/>
      <point x="178" y="92" type="curve" smooth="yes"/>
      <point x="178" y="22"/>
      <point x="147" y="-11"/>
    </contour>
  </outline>
</glyph>
<glyph name="perthousand" format="1">
  <advance width="600"/>
  <unicode hex="2030"/>
  <outline>
    <contour>
      <point x="90" y="275" type="curve" smooth="yes"/>
      <point x="22" y="275"/>
      <point x="4" y="362"/>
      <point x="4" y="492" type="curve" smooth="yes"/>
      <point x="4" y="622"/>
      <point x="20" y="711"/>
      <point x="88" y="711" type="curve" smooth="yes"/>
      <point x="156" y="711"/>
      <point x="174" y="624"/>
      <point x="174" y="494" type="curve" smooth="yes"/>
      <point x="174" y="364"/>
      <point x="158" y="275"/>
    </contour>
    <contour>
      <point x="81" y="0" type="line"/>
      <point x="280" y="700" type="line"/>
      <point x="334" y="700" type="line"/>
      <point x="135" y="0" type="line"/>
    </contour>
    <contour>
      <point x="512" y="-11" type="curve" smooth="yes"/>
      <point x="444" y="-11"/>
      <point x="426" y="76"/>
      <point x="426" y="206" type="curve" smooth="yes"/>
      <point x="426" y="336"/>
      <point x="442" y="425"/>
      <point x="510" y="425" type="curve" smooth="yes"/>
      <point x="578" y="425"/>
      <point x="596" y="338"/>
      <point x="596" y="208" type="curve" smooth="yes"/>
      <point x="596" y="78"/>
      <point x="580" y="-11"/>
    </contour>
    <contour>
      <point x="326" y="-11" type="curve" smooth="yes"/>
      <point x="258" y="-11"/>
      <point x="240" y="76"/>
      <point x="240" y="206" type="curve" smooth="yes"/>
      <point x="240" y="336"/>
      <point x="256" y="425"/>
      <point x="324" y="425" type="curve" smooth="yes"/>
      <point x="392" y="425"/>
      <point x="410" y="338"/>
      <point x="410" y="208" type="curve" smooth="yes"/>
      <point x="410" y="78"/>
      <point x="394" y="-11"/>
    </contour>
    <contour>
      <point x="89" y="339" type="curve" smooth="yes"/>
      <point x="102" y="339"/>
      <point x="105" y="370"/>
      <point x="105" y="494" type="curve" smooth="yes"/>
      <point x="105" y="618"/>
      <point x="102" y="647"/>
      <point x="89" y="647" type="curve" smooth="yes"/>
      <point x="76" y="647"/>
      <point x="73" y="616"/>
      <point x="73" y="492" type="curve" smooth="yes"/>
      <point x="73" y="368"/>
      <point x="77" y="339"/>
    </contour>
    <contour>
      <point x="511" y="53" type="curve" smooth="yes"/>
      <point x="524" y="53"/>
      <point x="527" y="84"/>
      <point x="527" y="208" type="curve" smooth="yes"/>
      <point x="527" y="332"/>
      <point x="524" y="361"/>
      <point x="511" y="361" type="curve" smooth="yes"/>
      <point x="498" y="361"/>
      <point x="495" y="330"/>
      <point x="495" y="206" type="curve" smooth="yes"/>
      <point x="495" y="82"/>
      <point x="499" y="53"/>
    </contour>
    <contour>
      <point x="325" y="53" type="curve" smooth="yes"/>
      <point x="338" y="53"/>
      <point x="341" y="84"/>
      <point x="341" y="208" type="curve" smooth="yes"/>
      <point x="341" y="332"/>
      <point x="338" y="361"/>
      <point x="325" y="361" type="curve" smooth="yes"/>
      <point x="312" y="361"/>
      <point x="309" y="330"/>
      <point x="309" y="206" type="curve" smooth="yes"/>
      <point x="309" y="82"/>
      <point x="313" y="53"/>
    </contour>
  </outline>
</glyph>
<glyph name="guilsinglleft" format="1">
  <advance width="600"/>
  <unicode hex="2039"/>
  <outline>
    <contour>
      <point x="274" y="0" type="line"/>
      <point x="134" y="262" type="line"/>
      <point x="274" y="525" type="line"/>
      <point x="466" y="525" type="line"/>
      <point x="317" y="263" type="line"/>
      <point x="466" y="0" type="line"/>
    </contour>
  </outline>
</glyph>
<glyph name="guilsinglright" format="1">
  <advance width="600"/>
  <unicode hex="203A"/>
  <outline>
    <contour>
      <point x="134" y="0" type="line"/>
      <point x="283" y="262" type="line"/>
      <point x="134" y="525" type="line"/>
      <point x="326" y="525" type="line"/>
      <point x="466" y="263" type="line"/>
      <point x="326" y="0" type="line"/>
    </contour>
  </outline>
</glyph>
<glyph name="fraction" format="1">
  <advance width="600"/>
  <unicode hex="2044"/>
  <outline>
    <contour>
      <point x="18" y="0" type="line"/>
      <point x="423" y="700" type="line"/>
      <point x="582" y="700" type="line"/>
      <point x="177" y="0" type="line"/>
    </contour>
  </outline>
</glyph>
<glyph name="Euro" format="1">
  <advance width="600"/>
  <unicode hex="20AC"/>
  <outline>
    <contour>
      <point x="337" y="-11" type="curve" smooth="yes"/>
      <point x="192" y="-11"/>
      <point x="109" y="76"/>
      <point x="83" y="228" type="curve"/>
      <point x="20" y="228" type="line"/>
      <point x="20" y="323" type="line"/>
      <point x="73" y="323" type="line"/>
      <point x="73" y="332"/>
      <point x="73" y="340"/>
      <point x="73" y="349" type="curve" smooth="yes"/>
      <point x="73" y="357"/>
      <point x="73" y="365"/>
      <point x="73" y="372" type="curve"/>
      <point x="20" y="372" type="line"/>
      <point x="20" y="467" type="line"/>
      <point x="82" y="467" type="line"/>
      <point x="111" y="628"/>
      <point x="201" y="711"/>
      <point x="339" y="711" type="curve" smooth="yes"/>
      <point x="477" y="711"/>
      <point x="538" y="645"/>
      <point x="576" y="533" type="curve"/>
      <point x="428" y="476" type="line"/>
      <point x="411" y="551"/>
      <point x="384" y="571"/>
      <point x="336" y="571" type="curve" smooth="yes"/>
      <point x="292" y="571"/>
      <point x="263" y="543"/>
      <point x="251" y="467" type="curve"/>
      <point x="386" y="467" type="line"/>
      <point x="386" y="372" type="line"/>
      <point x="243" y="372" type="line"/>
      <point x="243" y="365"/>
      <point x="243" y="358"/>
      <point x="243" y="351" type="curve" smooth="yes"/>
      <point x="243" y="341"/>
      <point x="243" y="332"/>
      <point x="243" y="323" type="curve"/>
      <point x="386" y="323" type="line"/>
      <point x="386" y="228" type="line"/>
      <point x="252" y="228" type="line"/>
      <point x="265" y="156"/>
      <point x="294" y="129"/>
      <point x="338" y="129" type="curve" smooth="yes"/>
      <point x="383" y="129"/>
      <point x="410" y="156"/>
      <point x="434" y="223" type="curve"/>
      <point x="575" y="154" type="line"/>
      <point x="533" y="62"/>
      <point x="466" y="-11"/>
    </contour>
  </outline>
</glyph>
<glyph name="uni2117" format="1">
  <advance width="600"/>
  <unicode hex="2117"/>
  <outline>
    <contour>
      <point x="299" y="-11" type="curve" smooth="yes"/>
      <point x="131" y="-11"/>
      <point x="25" y="139"/>
      <point x="25" y="350" type="curve" smooth="yes"/>
      <point x="25" y="561"/>
      <point x="131" y="711"/>
      <point x="299" y="711" type="curve" smooth="yes"/>
      <point x="469" y="711"/>
      <point x="575" y="561"/>
      <point x="575" y="350" type="curve" smooth="yes"/>
      <point x="575" y="139"/>
      <point x="469" y="-11"/>
    </contour>
    <contour>
      <point x="299" y="50" type="curve" smooth="yes"/>
      <point x="434" y="50"/>
      <point x="508" y="174"/>
      <point x="508" y="350" type="curve" smooth="yes"/>
      <point x="508" y="526"/>
      <point x="434" y="650"/>
      <point x="299" y="650" type="curve" smooth="yes"/>
      <point x="165" y="650"/>
      <point x="92" y="526"/>
      <point x="92" y="350" type="curve" smooth="yes"/>
      <point x="92" y="174"/>
      <point x="165" y="50"/>
    </contour>
    <contour>
      <point x="196" y="152" type="line"/>
      <point x="196" y="548" type="line"/>
      <point x="321" y="548" type="line" smooth="yes"/>
      <point x="387" y="548"/>
      <point x="437" y="517"/>
      <point x="437" y="427" type="curve" smooth="yes"/>
      <point x="437" y="334"/>
      <point x="385" y="298"/>
      <point x="315" y="298" type="curve" smooth="yes"/>
      <point x="286" y="298" type="line"/>
      <point x="286" y="152" type="line"/>
    </contour>
    <contour>
      <point x="286" y="371" type="line"/>
      <point x="313" y="371" type="line" smooth="yes"/>
      <point x="337" y="371"/>
      <point x="346" y="387"/>
      <point x="346" y="424" type="curve" smooth="yes"/>
      <point x="346" y="461"/>
      <point x="339" y="475"/>
      <point x="313" y="475" type="curve" smooth="yes"/>
      <point x="286" y="475" type="line"/>
    </contour>
  </outline>
</glyph>
<glyph name="trademark" format="1">
  <advance width="600"/>
  <unicode hex="2122"/>
  <outline>
    <contour>
      <point x="79" y="303" type="line"/>
      <point x="79" y="621" type="line"/>
      <point x="4" y="621" type="line"/>
      <point x="4" y="700" type="line"/>
      <point x="242" y="700" type="line"/>
      <point x="242" y="621" type="line"/>
      <point x="169" y="621" type="line"/>
      <point x="169" y="303" type="line"/>
    </contour>
    <contour>
      <point x="435" y="292" type="line"/>
      <point x="401" y="388" type="line" smooth="yes"/>
      <point x="387" y="427"/>
      <point x="373" y="486"/>
      <point x="365" y="517" type="curve"/>
      <point x="366" y="483"/>
      <point x="368" y="435"/>
      <point x="368" y="390" type="curve" smooth="yes"/>
      <point x="368" y="303" type="line"/>
      <point x="287" y="303" type="line"/>
      <point x="287" y="700" type="line"/>
      <point x="369" y="700" type="line"/>
      <point x="401" y="604" type="line" smooth="yes"/>
      <point x="417" y="557"/>
      <point x="430" y="502"/>
      <point x="436" y="472" type="curve"/>
      <point x="442" y="502"/>
      <point x="454" y="557"/>
      <point x="470" y="606" type="curve" smooth="yes"/>
      <point x="501" y="700" type="line"/>
      <point x="584" y="700" type="line"/>
      <point x="584" y="303" type="line"/>
      <point x="501" y="303" type="line"/>
      <point x="501" y="390" type="line" smooth="yes"/>
      <point x="501" y="435"/>
      <point x="503" y="483"/>
      <point x="505" y="517" type="curve"/>
      <point x="496" y="485"/>
      <point x="481" y="427"/>
      <point x="468" y="388" type="curve" smooth="yes"/>
    </contour>
  </outline>
</glyph>
<glyph name="arrowleft" format="1">
  <advance width="600"/>
  <unicode hex="2190"/>
  <outline>
    <contour>
      <point x="248" y="189" type="curve"/>
      <point x="237" y="182"/>
      <point x="221" y="182"/>
      <point x="204" y="197" type="curve" smooth="yes"/>
      <point x="23" y="354" type="line"/>
      <point x="204" y="511" type="line" smooth="yes"/>
      <point x="221" y="526"/>
      <point x="237" y="526"/>
      <point x="248" y="519" type="curve"/>
      <point x="261" y="508"/>
      <point x="263" y="497"/>
      <point x="258" y="471" type="curve" smooth="yes"/>
      <point x="250" y="429" type="line"/>
      <point x="552" y="429" type="line"/>
      <point x="552" y="279" type="line"/>
      <point x="250" y="279" type="line"/>
      <point x="258" y="237" type="line" smooth="yes"/>
      <point x="263" y="212"/>
      <point x="261" y="200"/>
    </contour>
  </outline>
</glyph>
<glyph name="arrowup" format="1">
  <advance width="600"/>
  <unicode hex="2191"/>
  <outline>
    <contour>
      <point x="211" y="0" type="line"/>
      <point x="211" y="463" type="line"/>
      <point x="159" y="454" type="line" smooth="yes"/>
      <point x="129" y="449"/>
      <point x="117" y="451"/>
      <point x="105" y="467" type="curve" smooth="yes"/>
      <point x="96" y="479"/>
      <point x="96" y="497"/>
      <point x="113" y="517" type="curve" smooth="yes"/>
      <point x="300" y="730" type="line"/>
      <point x="487" y="517" type="line" smooth="yes"/>
      <point x="504" y="497"/>
      <point x="505" y="479"/>
      <point x="496" y="467" type="curve" smooth="yes"/>
      <point x="484" y="451"/>
      <point x="470" y="449"/>
      <point x="441" y="454" type="curve" smooth="yes"/>
      <point x="389" y="463" type="line"/>
      <point x="389" y="0" type="line"/>
    </contour>
  </outline>
</glyph>
<glyph name="arrowright" format="1">
  <advance width="600"/>
  <unicode hex="2192"/>
  <outline>
    <contour>
      <point x="352" y="189" type="curve"/>
      <point x="338" y="200"/>
      <point x="336" y="212"/>
      <point x="341" y="237" type="curve" smooth="yes"/>
      <point x="350" y="279" type="line"/>
      <point x="48" y="279" type="line"/>
      <point x="48" y="429" type="line"/>
      <point x="350" y="429" type="line"/>
      <point x="341" y="471" type="line" smooth="yes"/>
      <point x="335" y="497"/>
      <point x="338" y="508"/>
      <point x="352" y="519" type="curve"/>
      <point x="363" y="526"/>
      <point x="379" y="526"/>
      <point x="396" y="511" type="curve" smooth="yes"/>
      <point x="576" y="354" type="line"/>
      <point x="396" y="197" type="line" smooth="yes"/>
      <point x="379" y="182"/>
      <point x="363" y="182"/>
    </contour>
  </outline>
</glyph>
<glyph name="arrowdown" format="1">
  <advance width="600"/>
  <unicode hex="2193"/>
  <outline>
    <contour>
      <point x="300" y="-30" type="line"/>
      <point x="113" y="183" type="line" smooth="yes"/>
      <point x="96" y="203"/>
      <point x="96" y="221"/>
      <point x="105" y="233" type="curve" smooth="yes"/>
      <point x="117" y="249"/>
      <point x="129" y="251"/>
      <point x="159" y="246" type="curve" smooth="yes"/>
      <point x="211" y="237" type="line"/>
      <point x="211" y="700" type="line"/>
      <point x="389" y="700" type="line"/>
      <point x="389" y="237" type="line"/>
      <point x="441" y="246" type="line" smooth="yes"/>
      <point x="470" y="251"/>
      <point x="484" y="249"/>
      <point x="496" y="233" type="curve" smooth="yes"/>
      <point x="505" y="221"/>
      <point x="504" y="203"/>
      <point x="487" y="183" type="curve" smooth="yes"/>
    </contour>
  </outline>
</glyph>
<glyph name="arrowboth" format="1">
  <advance width="600"/>
  <unicode hex="2194"/>
  <outline>
    <contour>
      <point x="213" y="215" type="curve"/>
      <point x="202" y="209"/>
      <point x="189" y="209"/>
      <point x="175" y="221" type="curve" smooth="yes"/>
      <point x="19" y="354" type="line"/>
      <point x="175" y="487" type="line" smooth="yes"/>
      <point x="189" y="499"/>
      <point x="202" y="499"/>
      <point x="213" y="493" type="curve"/>
      <point x="224" y="484"/>
      <point x="226" y="475"/>
      <point x="221" y="452" type="curve" smooth="yes"/>
      <point x="214" y="417" type="line"/>
      <point x="386" y="417" type="line"/>
      <point x="377" y="452" type="line" smooth="yes"/>
      <point x="371" y="475"/>
      <point x="374" y="484"/>
      <point x="387" y="493" type="curve" smooth="yes"/>
      <point x="396" y="499"/>
      <point x="411" y="499"/>
      <point x="425" y="487" type="curve" smooth="yes"/>
      <point x="579" y="354" type="line"/>
      <point x="425" y="221" type="line" smooth="yes"/>
      <point x="411" y="209"/>
      <point x="396" y="209"/>
      <point x="387" y="215" type="curve" smooth="yes"/>
      <point x="374" y="224"/>
      <point x="371" y="234"/>
      <point x="377" y="256" type="curve" smooth="yes"/>
      <point x="386" y="291" type="line"/>
      <point x="214" y="291" type="line"/>
      <point x="221" y="256" type="line" smooth="yes"/>
      <point x="225" y="234"/>
      <point x="224" y="224"/>
    </contour>
  </outline>
</glyph>
<glyph name="arrowupdn" format="1">
  <advance width="600"/>
  <unicode hex="2195"/>
  <outline>
    <contour>
      <point x="300" y="-30" type="line"/>
      <point x="113" y="183" type="line" smooth="yes"/>
      <point x="96" y="203"/>
      <point x="96" y="221"/>
      <point x="105" y="233" type="curve" smooth="yes"/>
      <point x="117" y="249"/>
      <point x="129" y="251"/>
      <point x="159" y="246" type="curve" smooth="yes"/>
      <point x="211" y="237" type="line"/>
      <point x="211" y="463" type="line"/>
      <point x="159" y="454" type="line" smooth="yes"/>
      <point x="129" y="449"/>
      <point x="117" y="451"/>
      <point x="105" y="467" type="curve" smooth="yes"/>
      <point x="96" y="479"/>
      <point x="96" y="497"/>
      <point x="113" y="517" type="curve" smooth="yes"/>
      <point x="300" y="730" type="line"/>
      <point x="487" y="517" type="line" smooth="yes"/>
      <point x="504" y="497"/>
      <point x="505" y="479"/>
      <point x="496" y="467" type="curve" smooth="yes"/>
      <point x="484" y="451"/>
      <point x="470" y="449"/>
      <point x="441" y="454" type="curve" smooth="yes"/>
      <point x="389" y="463" type="line"/>
      <point x="389" y="237" type="line"/>
      <point x="441" y="246" type="line" smooth="yes"/>
      <point x="470" y="251"/>
      <point x="484" y="249"/>
      <point x="496" y="233" type="curve" smooth="yes"/>
      <point x="505" y="221"/>
      <point x="504" y="203"/>
      <point x="487" y="183" type="curve" smooth="yes"/>
    </contour>
  </outline>
</glyph>
<glyph name="radical" format="1">
  <advance width="600"/>
  <unicode hex="221A"/>
  <outline>
    <contour>
      <point x="176" y="0" type="line"/>
      <point x="26" y="340" type="line"/>
      <point x="199" y="340" type="line"/>
      <point x="219" y="286" type="line" smooth="yes"/>
      <point x="236" y="239"/>
      <point x="252" y="187"/>
      <point x="259" y="142" type="curve"/>
      <point x="263" y="188"/>
      <point x="276" y="251"/>
      <point x="289" y="303" type="curve" smooth="yes"/>
      <point x="390" y="700" type="line"/>
      <point x="566" y="700" type="line"/>
      <point x="354" y="0" type="line"/>
    </contour>
  </outline>
</glyph>
<glyph name="apple" format="1">
  <advance width="600"/>
  <unicode hex="F8FF"/>
  <outline>
    <contour>
      <point x="299" y="-25" type="line"/>
      <point x="173" y="122" type="line" smooth="yes"/>
      <point x="161" y="136"/>
      <point x="159" y="149"/>
      <point x="166" y="159" type="curve"/>
      <point x="175" y="169"/>
      <point x="183" y="171"/>
      <point x="206" y="166" type="curve" smooth="yes"/>
      <point x="242" y="158" type="line"/>
      <point x="242" y="298" type="line"/>
      <point x="199" y="298" type="line"/>
      <point x="210" y="262" type="line" smooth="yes"/>
      <point x="217" y="239"/>
      <point x="213" y="231"/>
      <point x="200" y="222" type="curve" smooth="yes"/>
      <point x="190" y="215"/>
      <point x="179" y="215"/>
      <point x="163" y="229" type="curve" smooth="yes"/>
      <point x="16" y="354" type="line"/>
      <point x="163" y="479" type="line" smooth="yes"/>
      <point x="179" y="493"/>
      <point x="190" y="493"/>
      <point x="200" y="486" type="curve" smooth="yes"/>
      <point x="213" y="477"/>
      <point x="217" y="469"/>
      <point x="210" y="446" type="curve" smooth="yes"/>
      <point x="199" y="410" type="line"/>
      <point x="242" y="410" type="line"/>
      <point x="242" y="542" type="line"/>
      <point x="206" y="534" type="line" smooth="yes"/>
      <point x="183" y="529"/>
      <point x="175" y="531"/>
      <point x="166" y="541" type="curve"/>
      <point x="159" y="551"/>
      <point x="161" y="564"/>
      <point x="173" y="578" type="curve" smooth="yes"/>
      <point x="299" y="725" type="line"/>
      <point x="427" y="578" type="line" smooth="yes"/>
      <point x="438" y="566"/>
      <point x="438" y="551"/>
      <point x="434" y="541" type="curve"/>
      <point x="425" y="531"/>
      <point x="414" y="530"/>
      <point x="394" y="534" type="curve" smooth="yes"/>
      <point x="355" y="542" type="line"/>
      <point x="355" y="410" type="line"/>
      <point x="398" y="410" type="line"/>
      <point x="390" y="446" type="line" smooth="yes"/>
      <point x="385" y="469"/>
      <point x="387" y="477"/>
      <point x="397" y="486" type="curve"/>
      <point x="407" y="493"/>
      <point x="420" y="491"/>
      <point x="434" y="479" type="curve" smooth="yes"/>
      <point x="581" y="354" type="line"/>
      <point x="434" y="229" type="line" smooth="yes"/>
      <point x="420" y="217"/>
      <point x="407" y="215"/>
      <point x="397" y="222" type="curve"/>
      <point x="387" y="231"/>
      <point x="385" y="240"/>
      <point x="390" y="262" type="curve" smooth="yes"/>
      <point x="398" y="298" type="line"/>
      <point x="355" y="298" type="line"/>
      <point x="355" y="158" type="line"/>
      <point x="394" y="166" type="line" smooth="yes"/>
      <point x="414" y="170"/>
      <point x="425" y="169"/>
      <point x="434" y="159" type="curve"/>
      <point x="438" y="149"/>
      <point x="438" y="134"/>
      <point x="427" y="122" type="curve" smooth="yes"/>
    </contour>
  </outline>
</glyph>
<glyph name="fl" format="1">
  <advance width="600"/>
  <unicode hex="FB02"/>
  <outline>
    <contour>
      <point x="382" y="0" type="line"/>
      <point x="382" y="666" type="line"/>
      <point x="542" y="729" type="line"/>
      <point x="542" y="0" type="line"/>
    </contour>
    <contour>
      <point x="86" y="0" type="line"/>
      <point x="86" y="395" type="line"/>
      <point x="38" y="395" type="line"/>
      <point x="38" y="525" type="line"/>
      <point x="86" y="525" type="line"/>
      <point x="86" y="587" type="line" smooth="yes"/>
      <point x="86" y="685"/>
      <point x="136" y="726"/>
      <point x="221" y="726" type="curve" smooth="yes"/>
      <point x="265" y="726"/>
      <point x="298" y="720"/>
      <point x="321" y="710" type="curve"/>
      <point x="321" y="596" type="line"/>
      <point x="307" y="602"/>
      <point x="292" y="605"/>
      <point x="275" y="605" type="curve" smooth="yes"/>
      <point x="250" y="605"/>
      <point x="241" y="595"/>
      <point x="241" y="571" type="curve" smooth="yes"/>
      <point x="241" y="525" type="line"/>
      <point x="312" y="525" type="line"/>
      <point x="312" y="395" type="line"/>
      <point x="243" y="395" type="line"/>
      <point x="243" y="0" type="line"/>
    </contour>
  </outline>
</glyph>
<glyph name="bullet" format="1">
  <advance width="600"/>
  <outline>
    <contour>
      <point x="299" y="141" type="curve" smooth="yes"/>
      <point x="172" y="141"/>
      <point x="74" y="239"/>
      <point x="74" y="366" type="curve" smooth="yes"/>
      <point x="74" y="493"/>
      <point x="172" y="593"/>
      <point x="299" y="593" type="curve" smooth="yes"/>
      <point x="428" y="593"/>
      <point x="526" y="493"/>
      <point x="526" y="366" type="curve" smooth="yes"/>
      <point x="526" y="239"/>
      <point x="428" y="141"/>
    </contour>
  </outline>
</glyph>
<glyph name="macron" format="1">
  <advance width="600"/>
  <outline>
    <contour>
      <point x="137" y="610" type="line"/>
      <point x="137" y="725" type="line"/>
      <point x="463" y="725" type="line"/>
      <point x="463" y="610" type="line"/>
    </contour>
  </outline>
</glyph>
<glyph name="registered" format="1">
  <advance width="600"/>
  <outline>
    <contour>
      <point x="299" y="-11" type="curve" smooth="yes"/>
      <point x="131" y="-11"/>
      <point x="25" y="139"/>
      <point x="25" y="350" type="curve" smooth="yes"/>
      <point x="25" y="561"/>
      <point x="131" y="711"/>
      <point x="299" y="711" type="curve" smooth="yes"/>
      <point x="469" y="711"/>
      <point x="575" y="561"/>
      <point x="575" y="350" type="curve" smooth="yes"/>
      <point x="575" y="139"/>
      <point x="469" y="-11"/>
    </contour>
    <contour>
      <point x="299" y="50" type="curve" smooth="yes"/>
      <point x="434" y="50"/>
      <point x="508" y="174"/>
      <point x="508" y="350" type="curve" smooth="yes"/>
      <point x="508" y="526"/>
      <point x="434" y="650"/>
      <point x="299" y="650" type="curve" smooth="yes"/>
      <point x="165" y="650"/>
      <point x="92" y="526"/>
      <point x="92" y="350" type="curve" smooth="yes"/>
      <point x="92" y="174"/>
      <point x="165" y="50"/>
    </contour>
    <contour>
      <point x="186" y="161" type="line"/>
      <point x="186" y="557" type="line"/>
      <point x="315" y="557" type="line" smooth="yes"/>
      <point x="381" y="557"/>
      <point x="431" y="525"/>
      <point x="431" y="439" type="curve" smooth="yes"/>
      <point x="431" y="389"/>
      <point x="413" y="356"/>
      <point x="383" y="336" type="curve"/>
      <point x="435" y="161" type="line"/>
      <point x="339" y="161" type="line"/>
      <point x="297" y="317" type="line"/>
      <point x="276" y="317" type="line"/>
      <point x="276" y="161" type="line"/>
    </contour>
    <contour>
      <point x="276" y="386" type="line"/>
      <point x="305" y="386" type="line" smooth="yes"/>
      <point x="331" y="386"/>
      <point x="340" y="402"/>
      <point x="340" y="436" type="curve" smooth="yes"/>
      <point x="340" y="471"/>
      <point x="331" y="485"/>
      <point x="307" y="485" type="curve" smooth="yes"/>
      <point x="276" y="485" type="line"/>
    </contour>
  </outline>
</glyph>
